<svg xmlns="http://www.w3.org/2000/svg" viewBox="20 136.8545495427963 535.007720572991 301.2881546278111"><rect height="100%" width="100%" x="20" y="136.8545495427963" fill="#ffffff"/> <svg xmlns="http://www.w3.org/2000/svg" id="Layer_1" x="90" y="206.8545495427963" viewBox="129.50001525878906 85.30000305175781 512.7999877929688 414.5999755859375" height="130.42405509811996" width="161.31894565600993" preserveAspectRatio="xMinYMin" style="overflow: visible;"><linearGradient id="SVGID_1_" gradientUnits="userSpaceOnUse" x1="162.6356" y1="352.5013" x2="644.8365" y2="275.8776" style=""><stop offset="0" style="stop-color: #40B8EA;"></stop><stop offset="0.5045" style="stop-color: #6A71B1;"></stop><stop offset="1" style="stop-color: #C93593;"></stop></linearGradient><polygon class="st0" points="563.6,304.7 572,290.1 563.6,275.6 546.8,275.6 538.4,290.1 546.8,304.7  " style="fill: url(#SVGID_1_);"></polygon><linearGradient id="SVGID_2_" gradientUnits="userSpaceOnUse" x1="158.8797" y1="328.8648" x2="641.0806" y2="252.2411" style=""><stop offset="0" style="stop-color: #40B8EA;"></stop><stop offset="0.5045" style="stop-color: #6A71B1;"></stop><stop offset="1" style="stop-color: #C93593;"></stop></linearGradient><polygon class="st1" points="535.9,279.1 541.2,269.8 535.9,260.5 525.2,260.5 519.8,269.8 525.2,279.1  " style="fill: url(#SVGID_2_);"></polygon><linearGradient id="SVGID_3_" gradientUnits="userSpaceOnUse" x1="147.8661" y1="259.5549" x2="630.067" y2="182.9312" style=""><stop offset="0" style="stop-color: #40B8EA;"></stop><stop offset="0.5045" style="stop-color: #6A71B1;"></stop><stop offset="1" style="stop-color: #C93593;"></stop></linearGradient><polygon class="st2" points="596.2,198.4 601.6,189.2 596.2,179.9 585.5,179.9 580.1,189.2 585.5,198.4  " style="fill: url(#SVGID_3_);"></polygon><linearGradient id="SVGID_4_" gradientUnits="userSpaceOnUse" x1="144.3537" y1="237.4512" x2="626.5546" y2="160.8275" style=""><stop offset="0" style="stop-color: #40B8EA;"></stop><stop offset="0.5045" style="stop-color: #6A71B1;"></stop><stop offset="1" style="stop-color: #C93593;"></stop></linearGradient><polygon class="st3" points="501,179.1 506.3,188.4 517.1,188.4 522.4,179.1 517.1,169.8 506.3,169.8  " style="fill: url(#SVGID_4_);"></polygon><linearGradient id="SVGID_5_" gradientUnits="userSpaceOnUse" x1="154.2985" y1="300.0349" x2="636.4994" y2="223.4112" style=""><stop offset="0" style="stop-color: #40B8EA;"></stop><stop offset="0.5045" style="stop-color: #6A71B1;"></stop><stop offset="1" style="stop-color: #C93593;"></stop></linearGradient><polygon class="st4" points="521.1,228.7 504.5,228.7 496.2,243.1 504.5,257.5 521.1,257.5 529.4,243.1  " style="fill: url(#SVGID_5_);"></polygon><linearGradient id="SVGID_6_" gradientUnits="userSpaceOnUse" x1="162.7079" y1="352.956" x2="644.9088" y2="276.3323" style=""><stop offset="0" style="stop-color: #40B8EA;"></stop><stop offset="0.5045" style="stop-color: #6A71B1;"></stop><stop offset="1" style="stop-color: #C93593;"></stop></linearGradient><polygon class="st5" points="449,305.8 454.4,315 465.1,315 470.5,305.8 465.1,296.5 454.4,296.5  " style="fill: url(#SVGID_6_);"></polygon><linearGradient id="SVGID_7_" gradientUnits="userSpaceOnUse" x1="140.7464" y1="214.7499" x2="622.9473" y2="138.1262" style=""><stop offset="0" style="stop-color: #40B8EA;"></stop><stop offset="0.5045" style="stop-color: #6A71B1;"></stop><stop offset="1" style="stop-color: #C93593;"></stop></linearGradient><polygon class="st6" points="307,190 301.7,180.8 291,180.8 285.6,190 291,199.3 301.7,199.3  " style="fill: url(#SVGID_7_);"></polygon><linearGradient id="SVGID_8_" gradientUnits="userSpaceOnUse" x1="145.6681" y1="245.723" x2="627.869" y2="169.0993" style=""><stop offset="0" style="stop-color: #40B8EA;"></stop><stop offset="0.5045" style="stop-color: #6A71B1;"></stop><stop offset="1" style="stop-color: #C93593;"></stop></linearGradient><polygon class="st7" points="280.1,226.9 272,213 256,213 248,226.9 256,240.8 272,240.8  " style="fill: url(#SVGID_8_);"></polygon><linearGradient id="SVGID_9_" gradientUnits="userSpaceOnUse" x1="143.2595" y1="230.5653" x2="625.4604" y2="153.9416" style=""><stop offset="0" style="stop-color: #40B8EA;"></stop><stop offset="0.5045" style="stop-color: #6A71B1;"></stop><stop offset="1" style="stop-color: #C93593;"></stop></linearGradient><polygon class="st8" points="563,186.5 575,165.8 563,145 539,145 527,165.8 539,186.5  " style="fill: url(#SVGID_9_);"></polygon><linearGradient id="SVGID_10_" gradientUnits="userSpaceOnUse" x1="170.3879" y1="401.2872" x2="652.5888" y2="324.6635" style=""><stop offset="0" style="stop-color: #40B8EA;"></stop><stop offset="0.5045" style="stop-color: #6A71B1;"></stop><stop offset="1" style="stop-color: #C93593;"></stop></linearGradient><polygon class="st9" points="407.1,348.7 399.1,362.4 407.1,376.2 422.9,376.2 430.9,362.4 422.9,348.7  " style="fill: url(#SVGID_10_);"></polygon><linearGradient id="SVGID_11_" gradientUnits="userSpaceOnUse" x1="161.3954" y1="344.6965" x2="643.5963" y2="268.0728" style=""><stop offset="0" style="stop-color: #40B8EA;"></stop><stop offset="0.5045" style="stop-color: #6A71B1;"></stop><stop offset="1" style="stop-color: #C93593;"></stop></linearGradient><polygon class="st10" points="233.4,324.1 221.8,324.1 216,334.2 221.8,344.2 233.4,344.2 239.2,334.2  " style="fill: url(#SVGID_11_);"></polygon><linearGradient id="SVGID_12_" gradientUnits="userSpaceOnUse" x1="175.3237" y1="432.3486" x2="657.5245" y2="355.7249" style=""><stop offset="0" style="stop-color: #40B8EA;"></stop><stop offset="0.5045" style="stop-color: #6A71B1;"></stop><stop offset="1" style="stop-color: #C93593;"></stop></linearGradient><polygon class="st11" points="237.1,419.6 246.3,435.6 264.9,435.6 274.1,419.6 264.9,403.5 246.3,403.5  " style="fill: url(#SVGID_12_);"></polygon><linearGradient id="SVGID_13_" gradientUnits="userSpaceOnUse" x1="170.5542" y1="402.3336" x2="652.7551" y2="325.7099" style=""><stop offset="0" style="stop-color: #40B8EA;"></stop><stop offset="0.5045" style="stop-color: #6A71B1;"></stop><stop offset="1" style="stop-color: #C93593;"></stop></linearGradient><polygon class="st12" points="267.3,388.4 262.7,380.6 253.7,380.6 249.1,388.4 253.7,396.3 262.7,396.3  " style="fill: url(#SVGID_13_);"></polygon><linearGradient id="SVGID_14_" gradientUnits="userSpaceOnUse" x1="186.0222" y1="499.6753" x2="668.2231" y2="423.0516" style=""><stop offset="0" style="stop-color: #40B8EA;"></stop><stop offset="0.5045" style="stop-color: #6A71B1;"></stop><stop offset="1" style="stop-color: #C93593;"></stop></linearGradient><polygon class="st13" points="247.5,477.9 241.1,488.9 247.5,499.9 260.2,499.9 266.6,488.9 260.2,477.9  " style="fill: url(#SVGID_14_);"></polygon><linearGradient id="SVGID_15_" gradientUnits="userSpaceOnUse" x1="156.7976" y1="315.7618" x2="638.9985" y2="239.1382" style=""><stop offset="0" style="stop-color: #40B8EA;"></stop><stop offset="0.5045" style="stop-color: #6A71B1;"></stop><stop offset="1" style="stop-color: #C93593;"></stop></linearGradient><path class="st14" d="M622.6,281.2l19.7-34.1l-19.7-34.1h-39.4l-8.4,14.5l-12.4-7.7l5.2-9L555,188.9h-25.2l-9.5,16.5l-14.6-1.5   l0.5-0.9l-17.4-30.2h-6.9l4.9-18.1H503l12.6-21.9L503,111h-25.2l-12.6,21.9l12.6,21.9h5l-4.9,18.1h-24l-13.7,23.7l-16-3.7l3.1-5.4   l-16.6-28.7h-15.2l-0.7-16.2h8.5l12.6-21.9l-12.6-21.9h-25.2l-12.6,21.9l12.6,21.9h12.9l0.7,16.2h-14.1l-16.6,28.7l9.7,16.8   l-22.5,17.4l-5.4-9.3h-24.2l-7.1-43.5h9.4l15.3-26.4L321.1,116h-30.5l-15.3,26.4l15.3,26.4h17.3l7.1,43.5h-13.3l-5.6,9.8   l-37.7-34.8l9.7-16.8l-16.2-28.1h-32.5l-16.2,28.1l16.2,28.1h32.5l4.6-8l37.7,34.8L281,248.1l0.6,1l-82.4,4.5l-15.7-27.2h-36   l-18,31.2l18,31.2h36l18-31.2l-0.2-0.4l82.4-4.5l9.1,15.8l-14.6,11l-5.4-9.3h-28.6L229.9,295l5.1,8.8l-31.4,12.5l-7.2-12.4h-26.8   L156.2,327l13.4,23.2h26.8l13.4-23.2l-4.3-7.4l31.4-12.5l7.3,12.7h28.6l14.3-24.8l-7.1-12.2l14.6-11l7,12.1h17.6l-0.6,24.4h-16.2   l-17.3,29.9l3.7,6.4l-8.5,2.5l-7.7-13.4h-23.3l-11.6,20.2l11.6,20.2h23.3l11.6-20.2l-2-3.4l8.5-2.5l11.7,20.2h10.5l-2.2,12.7h-18.2   l-15.9,27.6l14.1,24.3l-4.9,7.8h-18.9l-10.5,18.1l10.5,18.1h20.9l10.5-18.1l-9.3-16.1l4.2-6.6h31.3l15.9-27.6l-15.9-27.6h-9.8   l2.2-12.7H337l6.5-11.3l9.6,7.4l-6,10.4l10.6,18.3h21.1l10.6-18.3l-10.6-18.3h-21.1l-2.7,4.6l-9.6-7.4l8.8-15.3L337,308.2h-14.6   l0.6-24.4h20l9-15.7l16.3,11.7L356.7,300l19.6,34h39.3l8-13.9l21,13.6l-7.1,12.3l13,22.5h25.9l13-22.5l-13-22.5h-25.9l-4,6.9   l-21-13.6l9.7-16.8l-2.3-4.1l37.9-5.5l8.8,15.2H503l1.8-3.2l14.9,20l-12.1,20.9l15.6,27h31.2l15.6-27l-6-10.4l14.6-8.4l5.6,9.7   h23.5l11.8-20.4l-11.8-20.4h-23.5l-11.8,20.4l4.3,7.4l-14.6,8.4l-7.7-13.3h-31.2l-1.5,2.6l-14.9-20l7.9-13.6L503,265h-23.5   l-11.7,20.3l0.9,1.6l-37.9,5.5l-12.3-21.3l33-42.1l2.4,4.2h34.8l14.8-25.7l14.6,1.5l-1,1.8l12.6,21.9H555l5.5-9.6l12.4,7.7   l-9.4,16.3l19.7,34.1H622.6z M416.5,267.6l-0.9-1.6h-39.3l-6.1,10.6l-16.3-11.7l9.7-16.8l-13.4-23.2l22.5-17.4l4.9,8.6h33.1   l11.4-19.8l16,3.7l-1.7,3l13,22.5L416.5,267.6z" style="fill: url(#SVGID_15_);"></path><linearGradient id="SVGID_16_" gradientUnits="userSpaceOnUse" x1="144.8307" y1="240.4529" x2="627.0316" y2="163.8292" style=""><stop offset="0" style="stop-color: #40B8EA;"></stop><stop offset="0.5045" style="stop-color: #6A71B1;"></stop><stop offset="1" style="stop-color: #C93593;"></stop></linearGradient><polygon class="st15" points="233.8,244.7 243.5,227.9 233.8,211.1 214.3,211.1 204.6,227.9 214.3,244.7  " style="fill: url(#SVGID_16_);"></polygon><linearGradient id="SVGID_17_" gradientUnits="userSpaceOnUse" x1="128.2248" y1="135.9505" x2="610.4257" y2="59.3268" style=""><stop offset="0" style="stop-color: #40B8EA;"></stop><stop offset="0.5045" style="stop-color: #6A71B1;"></stop><stop offset="1" style="stop-color: #C93593;"></stop></linearGradient><polygon class="st16" points="353.4,118.1 362.9,101.7 353.4,85.3 334.5,85.3 325,101.7 334.5,118.1  " style="fill: url(#SVGID_17_);"></polygon><linearGradient id="SVGID_18_" gradientUnits="userSpaceOnUse" x1="130.9958" y1="153.3887" x2="613.1967" y2="76.765" style=""><stop offset="0" style="stop-color: #40B8EA;"></stop><stop offset="0.5045" style="stop-color: #6A71B1;"></stop><stop offset="1" style="stop-color: #C93593;"></stop></linearGradient><polygon class="st17" points="449.8,121 459.5,104.3 449.8,87.5 430.4,87.5 420.8,104.3 430.4,121  " style="fill: url(#SVGID_18_);"></polygon><linearGradient id="SVGID_19_" gradientUnits="userSpaceOnUse" x1="137.7304" y1="195.77" x2="619.9313" y2="119.1463" style=""><stop offset="0" style="stop-color: #40B8EA;"></stop><stop offset="0.5045" style="stop-color: #6A71B1;"></stop><stop offset="1" style="stop-color: #C93593;"></stop></linearGradient><polygon class="st18" points="435.1,137.3 429.1,147.6 435.1,157.8 446.9,157.8 452.8,147.6 446.9,137.3  " style="fill: url(#SVGID_19_);"></polygon><linearGradient id="SVGID_20_" gradientUnits="userSpaceOnUse" x1="136.4946" y1="187.9927" x2="618.6954" y2="111.369" style=""><stop offset="0" style="stop-color: #40B8EA;"></stop><stop offset="0.5045" style="stop-color: #6A71B1;"></stop><stop offset="1" style="stop-color: #C93593;"></stop></linearGradient><polygon class="st19" points="346.2,152.8 352.2,163 364,163 370,152.8 364,142.5 352.2,142.5  " style="fill: url(#SVGID_20_);"></polygon><linearGradient id="SVGID_21_" gradientUnits="userSpaceOnUse" x1="129.6593" y1="144.9776" x2="611.8602" y2="68.3539" style=""><stop offset="0" style="stop-color: #40B8EA;"></stop><stop offset="0.5045" style="stop-color: #6A71B1;"></stop><stop offset="1" style="stop-color: #C93593;"></stop></linearGradient><polygon class="st20" points="265.4,138 273.1,124.6 265.4,111.3 250,111.3 242.3,124.6 250,138  " style="fill: url(#SVGID_21_);"></polygon><linearGradient id="SVGID_22_" gradientUnits="userSpaceOnUse" x1="150.751" y1="277.7102" x2="632.9519" y2="201.0865" style=""><stop offset="0" style="stop-color: #40B8EA;"></stop><stop offset="0.5045" style="stop-color: #6A71B1;"></stop><stop offset="1" style="stop-color: #C93593;"></stop></linearGradient><polygon class="st21" points="402.7,218.9 392.8,236.1 402.7,253.3 422.5,253.3 432.5,236.1 422.5,218.9  " style="fill: url(#SVGID_22_);"></polygon><linearGradient id="SVGID_23_" gradientUnits="userSpaceOnUse" x1="155.6817" y1="308.7397" x2="637.8826" y2="232.116" style=""><stop offset="0" style="stop-color: #40B8EA;"></stop><stop offset="0.5045" style="stop-color: #6A71B1;"></stop><stop offset="1" style="stop-color: #C93593;"></stop></linearGradient><polygon class="st22" points="442.2,261.1 449,272.7 462.4,272.7 469.2,261.1 462.4,249.4 449,249.4  " style="fill: url(#SVGID_23_);"></polygon><linearGradient id="SVGID_24_" gradientUnits="userSpaceOnUse" x1="150.1242" y1="273.7655" x2="632.3251" y2="197.1418" style=""><stop offset="0" style="stop-color: #40B8EA;"></stop><stop offset="0.5045" style="stop-color: #6A71B1;"></stop><stop offset="1" style="stop-color: #C93593;"></stop></linearGradient><polygon class="st23" points="370.9,227.2 364.8,237.7 370.9,248.2 383,248.2 389.1,237.7 383,227.2  " style="fill: url(#SVGID_24_);"></polygon><linearGradient id="SVGID_25_" gradientUnits="userSpaceOnUse" x1="153.0812" y1="292.3742" x2="635.282" y2="215.7505" style=""><stop offset="0" style="stop-color: #40B8EA;"></stop><stop offset="0.5045" style="stop-color: #6A71B1;"></stop><stop offset="1" style="stop-color: #C93593;"></stop></linearGradient><polygon class="st24" points="225.9,282.9 219.3,271.6 206.3,271.6 199.7,282.9 206.3,294.2 219.3,294.2  " style="fill: url(#SVGID_25_);"></polygon><linearGradient id="SVGID_26_" gradientUnits="userSpaceOnUse" x1="142.0239" y1="222.7896" x2="624.2248" y2="146.1659" style=""><stop offset="0" style="stop-color: #40B8EA;"></stop><stop offset="0.5045" style="stop-color: #6A71B1;"></stop><stop offset="1" style="stop-color: #C93593;"></stop></linearGradient><polygon class="st25" points="320.1,192.6 326,202.8 337.7,202.8 343.6,192.6 337.7,182.5 326,182.5  " style="fill: url(#SVGID_26_);"></polygon><linearGradient id="SVGID_27_" gradientUnits="userSpaceOnUse" x1="140.1364" y1="210.9114" x2="622.3373" y2="134.2877" style=""><stop offset="0" style="stop-color: #40B8EA;"></stop><stop offset="0.5045" style="stop-color: #6A71B1;"></stop><stop offset="1" style="stop-color: #C93593;"></stop></linearGradient><polygon class="st26" points="199.3,219.8 209,203 199.3,186.3 180,186.3 170.4,203 180,219.8  " style="fill: url(#SVGID_27_);"></polygon></svg> <svg xmlns="http://www.w3.org/2000/svg" y="357.6527043994892" viewBox="0.9500000476837158 2.25 232.47000122070312 10.489999771118164" x="179.37771569017846" height="10.489999771118164" width="232.47000122070312" style="overflow: visible;"><g fill="#ff595f" fill-opacity="1" style=""><path d="M3.74 7.44L2.80 8.41L2.80 11.43L0.95 11.43L0.95 2.39L2.80 2.39L2.80 6.36L6.34 2.39L8.53 2.39L4.92 6.27L8.91 11.43L6.69 11.43L3.74 7.44ZM22.88 11.43L21.03 11.43L17.39 5.18L17.39 11.43L15.53 11.43L15.53 2.39L17.44 2.39L21.03 8.53L21.03 2.39L22.88 2.39L22.88 11.43ZM34.28 2.25L34.28 2.25Q36.19 2.25 37.36 3.47L37.36 3.47Q38.62 4.80 38.62 6.91L38.62 6.91Q38.62 8.99 37.36 10.34L37.36 10.34Q36.21 11.56 34.28 11.56L34.28 11.56Q32.33 11.56 31.18 10.34L31.18 10.34Q29.92 8.99 29.92 6.91L29.92 6.91Q29.92 4.82 31.18 3.47L31.18 3.47Q32.34 2.25 34.28 2.25ZM34.28 3.84L34.28 3.84Q33.06 3.84 32.37 4.78L32.37 4.78Q31.78 5.61 31.78 6.91L31.78 6.91Q31.78 8.40 32.55 9.24L32.55 9.24Q33.21 9.97 34.28 9.97L34.28 9.97Q35.49 9.97 36.17 9.03L36.17 9.03Q36.76 8.21 36.76 6.91L36.76 6.91Q36.76 5.42 35.99 4.57L35.99 4.57Q35.32 3.84 34.28 3.84ZM56.26 2.39L53.76 11.43L52.09 11.43L50.57 4.38L49.10 11.43L47.42 11.43L44.87 2.39L46.84 2.39L48.24 9.17L49.65 2.39L51.48 2.39L52.94 9.18L54.29 2.39L56.26 2.39ZM74.39 11.43L72.76 4.39L72.76 11.43L70.90 11.43L70.90 2.39L73.68 2.39L75.32 9.58L76.90 2.39L79.70 2.39L79.70 11.43L77.85 11.43L77.85 4.39L76.24 11.43L74.39 11.43ZM91.10 2.25L91.10 2.25Q93.02 2.25 94.18 3.47L94.18 3.47Q95.44 4.80 95.44 6.91L95.44 6.91Q95.44 8.99 94.18 10.34L94.18 10.34Q93.03 11.56 91.10 11.56L91.10 11.56Q89.15 11.56 88.00 10.34L88.00 10.34Q86.74 8.99 86.74 6.91L86.74 6.91Q86.74 4.82 88.00 3.47L88.00 3.47Q89.17 2.25 91.10 2.25ZM91.10 3.84L91.10 3.84Q89.89 3.84 89.19 4.78L89.19 4.78Q88.60 5.61 88.60 6.91L88.60 6.91Q88.60 8.40 89.37 9.24L89.37 9.24Q90.04 9.97 91.10 9.97L91.10 9.97Q92.31 9.97 92.99 9.03L92.99 9.03Q93.58 8.21 93.58 6.91L93.58 6.91Q93.58 5.42 92.81 4.57L92.81 4.57Q92.15 3.84 91.10 3.84ZM106.47 7.84L104.33 7.84L104.33 11.43L102.48 11.43L102.48 2.39L107.33 2.39Q108.48 2.39 109.08 3.00L109.08 3.00Q109.76 3.70 109.76 4.84L109.76 4.84Q109.76 6.48 108.22 7.07L108.22 7.07Q109.09 7.41 109.28 7.92L109.28 7.92Q109.42 8.28 109.49 10.35L109.49 10.35Q109.50 10.87 109.88 11.08L109.88 11.08L109.88 11.43L107.88 11.43Q107.60 10.91 107.60 9.90L107.60 9.90Q107.60 9.65 107.62 9.28L107.62 9.28Q107.62 9.03 107.62 8.91L107.62 8.91Q107.62 7.84 106.47 7.84L106.47 7.84ZM104.33 3.94L104.33 6.29L106.58 6.29Q107.29 6.29 107.57 6.06L107.57 6.06Q107.91 5.77 107.91 5.10L107.91 5.10Q107.91 4.46 107.57 4.18L107.57 4.18Q107.28 3.94 106.58 3.94L106.58 3.94L104.33 3.94ZM123.19 7.54L118.86 7.54L118.86 9.87L123.76 9.87L123.76 11.43L117.00 11.43L117.00 2.39L123.53 2.39L123.53 3.94L118.86 3.94L118.86 5.98L123.19 5.98L123.19 7.54ZM131.46 11.34L131.46 11.34Q131.11 11.29 130.93 11.05L130.93 11.05Q130.77 10.86 130.77 10.54L130.77 10.54Q130.77 10.28 130.90 10.07L130.90 10.07Q131.12 9.72 131.56 9.72L131.56 9.72Q131.94 9.72 132.20 10.01Q132.45 10.30 132.45 10.73L132.45 10.73Q132.45 11.77 131.55 12.74L131.55 12.74L131.16 12.74L130.86 12.50Q131.15 12.08 131.27 11.80L131.27 11.80Q131.41 11.55 131.46 11.34ZM155.17 11.43L153.32 11.43L149.68 5.18L149.68 11.43L147.82 11.43L147.82 2.39L149.73 2.39L153.32 8.53L153.32 2.39L155.17 2.39L155.17 11.43ZM166.57 2.25L166.57 2.25Q168.48 2.25 169.65 3.47L169.65 3.47Q170.91 4.80 170.91 6.91L170.91 6.91Q170.91 8.99 169.65 10.34L169.65 10.34Q168.50 11.56 166.57 11.56L166.57 11.56Q164.62 11.56 163.47 10.34L163.47 10.34Q162.21 8.99 162.21 6.91L162.21 6.91Q162.21 4.82 163.47 3.47L163.47 3.47Q164.63 2.25 166.57 2.25ZM166.57 3.84L166.57 3.84Q165.35 3.84 164.66 4.78L164.66 4.78Q164.07 5.61 164.07 6.91L164.07 6.91Q164.07 8.40 164.84 9.24L164.84 9.24Q165.50 9.97 166.57 9.97L166.57 9.97Q167.78 9.97 168.46 9.03L168.46 9.03Q169.05 8.21 169.05 6.91L169.05 6.91Q169.05 5.42 168.28 4.57L168.28 4.57Q167.61 3.84 166.57 3.84ZM185.88 2.39L187.74 2.39L187.74 9.87L192.07 9.87L192.07 11.43L185.88 11.43L185.88 2.39ZM204.99 7.54L200.66 7.54L200.66 9.87L205.56 9.87L205.56 11.43L198.80 11.43L198.80 2.39L205.33 2.39L205.33 3.94L200.66 3.94L200.66 5.98L204.99 5.98L204.99 7.54ZM219.22 5.11L219.22 5.11L217.48 5.11Q217.39 3.74 215.59 3.74L215.59 3.74Q214.87 3.74 214.44 4.03Q214.02 4.32 214.02 4.81L214.02 4.81Q214.02 5.29 214.37 5.53Q214.73 5.77 215.74 5.96L215.74 5.96L217.15 6.22Q218.40 6.46 218.97 7.04Q219.54 7.63 219.54 8.69L219.54 8.69Q219.54 10.14 218.43 10.90L218.43 10.90Q217.47 11.56 215.84 11.56L215.84 11.56Q213.98 11.56 213.01 10.71L213.01 10.71Q212.16 9.96 212.09 8.64L212.09 8.64L213.89 8.64Q213.99 10.07 215.93 10.07L215.93 10.07Q216.78 10.07 217.27 9.77Q217.76 9.46 217.76 8.91L217.76 8.91Q217.76 8.38 217.37 8.09Q216.99 7.80 216.05 7.63L216.05 7.63L214.79 7.39Q213.41 7.13 212.83 6.58Q212.24 6.03 212.24 5.00L212.24 5.00Q212.24 3.60 213.26 2.88L213.26 2.88Q214.15 2.25 215.66 2.25L215.66 2.25Q217.49 2.25 218.41 3.08L218.41 3.08Q219.21 3.81 219.22 5.11ZM233.10 5.11L233.10 5.11L231.36 5.11Q231.27 3.74 229.47 3.74L229.47 3.74Q228.75 3.74 228.32 4.03Q227.90 4.32 227.90 4.81L227.90 4.81Q227.90 5.29 228.25 5.53Q228.61 5.77 229.62 5.96L229.62 5.96L231.03 6.22Q232.28 6.46 232.85 7.04Q233.42 7.63 233.42 8.69L233.42 8.69Q233.42 10.14 232.31 10.90L232.31 10.90Q231.35 11.56 229.72 11.56L229.72 11.56Q227.86 11.56 226.89 10.71L226.89 10.71Q226.04 9.96 225.97 8.64L225.97 8.64L227.77 8.64Q227.87 10.07 229.81 10.07L229.81 10.07Q230.67 10.07 231.15 9.77Q231.64 9.46 231.64 8.91L231.64 8.91Q231.64 8.38 231.25 8.09Q230.87 7.80 229.93 7.63L229.93 7.63L228.67 7.39Q227.29 7.13 226.71 6.58Q226.12 6.03 226.12 5.00L226.12 5.00Q226.12 3.60 227.14 2.88L227.14 2.88Q228.03 2.25 229.54 2.25L229.54 2.25Q231.37 2.25 232.29 3.08L232.29 3.08Q233.09 3.81 233.10 5.11Z" transform="translate(0, 0)"></path></g></svg> <svg xmlns="http://www.w3.org/2000/svg" y="312.9392980175628" viewBox="3.930000066757202 -1.0399999618530273 305.6300048828125 38" x="179.3777156901785" height="38" width="305.6300048828125" style="overflow: visible;"><g fill="#0b3954" fill-opacity="1" style=""><path d="M8.10 0.93L8.10 11.96L7.99 13.35L8.56 12.54L19.52 0.93L24.84 0.93L13.27 13.08L25.38 28.93L20.18 28.93L10.26 15.66L8.10 17.78L8.10 28.93L3.93 28.93L3.93 0.93L8.10 0.93ZM28.03 12.77L31.58 12.77L31.93 16.47L31.77 15.97Q32.58 14.23 34.28 13.17Q35.98 12.11 38.29 12.11L38.29 12.11Q40.57 12.11 42.05 13.46Q43.54 14.81 43.58 16.97L43.58 16.97L43.58 28.93L39.60 28.93L39.60 18.36Q39.57 17.13 38.87 16.34Q38.18 15.55 36.71 15.51L36.71 15.51Q35.40 15.51 34.32 16.30Q33.24 17.09 32.62 18.44Q32.00 19.79 32.00 21.56L32.00 21.56L32.00 28.93L28.03 28.93L28.03 12.77ZM46.88 20.68L46.88 20.68Q46.88 18.25 48.04 16.30Q49.20 14.35 51.24 13.23Q53.28 12.11 55.91 12.11L55.91 12.11Q58.57 12.11 60.58 13.23Q62.58 14.35 63.68 16.30Q64.78 18.25 64.78 20.68L64.78 20.68Q64.78 23.11 63.68 25.07Q62.58 27.04 60.58 28.18Q58.57 29.32 55.87 29.32L55.87 29.32Q53.28 29.32 51.26 28.28Q49.23 27.23 48.06 25.29Q46.88 23.34 46.88 20.68ZM50.89 20.72L50.89 20.72Q50.89 22.22 51.55 23.44Q52.20 24.65 53.32 25.36Q54.44 26.08 55.83 26.08L55.83 26.08Q57.26 26.08 58.38 25.36Q59.50 24.65 60.13 23.44Q60.77 22.22 60.77 20.72L60.77 20.72Q60.77 19.21 60.13 18.02Q59.50 16.82 58.38 16.09Q57.26 15.35 55.83 15.35L55.83 15.35Q54.40 15.35 53.28 16.09Q52.17 16.82 51.53 18.03Q50.89 19.25 50.89 20.72ZM74.76 12.77L78.19 12.77L82.70 23.15L81.93 23.18L86.06 12.77L89.96 12.77L82.55 29.90L77.38 18.90L72.64 29.90L65.19 12.77L69.09 12.77L73.87 23.65L72.48 23.42L75.95 15.39L74.76 12.77ZM92.26 28.93L92.26-1.04L96.23-1.04L96.23 28.93L92.26 28.93ZM108.48 29.32L108.48 29.32Q105.67 29.32 103.66 28.22Q101.66 27.12 100.58 25.17Q99.50 23.22 99.50 20.72L99.50 20.72Q99.50 18.32 100.71 16.38Q101.93 14.43 103.99 13.27Q106.05 12.11 108.56 12.11L108.56 12.11Q111.80 12.11 113.94 14.00Q116.08 15.89 116.82 19.29L116.82 19.29L103.66 23.84L102.74 21.53L113.27 17.75L112.46 18.25Q111.99 17.05 110.99 16.14Q109.99 15.24 108.25 15.24L108.25 15.24Q106.86 15.24 105.76 15.91Q104.66 16.59 104.03 17.76Q103.39 18.94 103.39 20.52L103.39 20.52Q103.39 22.14 104.07 23.36Q104.74 24.57 105.92 25.27Q107.09 25.96 108.56 25.96L108.56 25.96Q109.60 25.96 110.55 25.58Q111.49 25.19 112.34 24.61L112.34 24.61L114.15 27.54Q112.88 28.35 111.40 28.84Q109.91 29.32 108.48 29.32ZM126.41 29.32L126.41 29.32Q124.13 29.32 122.32 28.26Q120.51 27.20 119.46 25.23Q118.42 23.26 118.42 20.64L118.42 20.64Q118.42 17.94 119.54 16.03Q120.66 14.12 122.57 13.10Q124.48 12.07 126.87 12.07L126.87 12.07Q128.72 12.07 130.40 12.83Q132.08 13.58 133.00 14.93L133.00 14.93L132.89 16.28L132.89-1.04L136.82-1.04L136.82 28.93L132.85 28.93L132.85 25.11L133.27 26.15Q132.08 27.50 130.34 28.41Q128.61 29.32 126.41 29.32ZM127.64 25.96L127.64 25.96Q128.99 25.96 130.03 25.50Q131.08 25.04 131.81 24.17Q132.54 23.30 132.85 22.14L132.85 22.14L132.85 18.90Q132.58 17.82 131.83 16.99Q131.08 16.16 130.00 15.70Q128.91 15.24 127.64 15.24L127.64 15.24Q126.21 15.24 125.04 15.91Q123.86 16.59 123.15 17.78Q122.43 18.98 122.43 20.56L122.43 20.56Q122.43 22.07 123.15 23.30Q123.86 24.53 125.06 25.25Q126.25 25.96 127.64 25.96ZM149.42 36.96L149.42 36.96Q147.53 36.96 146.14 36.53Q144.76 36.11 143.66 35.36Q142.56 34.60 141.55 33.75L141.55 33.75L143.91 31.02Q145.10 32.13 146.38 32.81Q147.65 33.48 149.35 33.48L149.35 33.48Q151.04 33.48 152.26 32.92Q153.47 32.37 154.13 31.36Q154.79 30.36 154.79 28.97L154.79 28.97L154.82 24.77L155.09 25.54Q154.44 27.12 152.66 28.22Q150.89 29.32 148.30 29.32L148.30 29.32Q146.11 29.32 144.23 28.20Q142.36 27.08 141.25 25.15Q140.13 23.22 140.13 20.79L140.13 20.79Q140.13 18.25 141.30 16.30Q142.48 14.35 144.41 13.21Q146.34 12.07 148.54 12.07L148.54 12.07Q150.70 12.07 152.39 12.90Q154.09 13.73 154.94 14.97L154.94 14.97L154.71 15.62L155.13 12.77L158.80 12.77L158.80 29.01Q158.80 31.25 157.62 33.04Q156.44 34.83 154.36 35.90Q152.28 36.96 149.42 36.96ZM144.14 20.68L144.14 20.68Q144.14 22.18 144.83 23.42Q145.53 24.65 146.74 25.36Q147.96 26.08 149.46 26.08L149.46 26.08Q150.81 26.08 151.89 25.60Q152.97 25.11 153.72 24.28Q154.48 23.45 154.82 22.34L154.82 22.34L154.82 18.98Q154.48 17.86 153.71 17.07Q152.93 16.28 151.85 15.82Q150.77 15.35 149.46 15.35L149.46 15.35Q147.96 15.35 146.74 16.03Q145.53 16.70 144.83 17.90Q144.14 19.10 144.14 20.68ZM171.05 29.32L171.05 29.32Q168.23 29.32 166.23 28.22Q164.22 27.12 163.14 25.17Q162.06 23.22 162.06 20.72L162.06 20.72Q162.06 18.32 163.28 16.38Q164.49 14.43 166.56 13.27Q168.62 12.11 171.13 12.11L171.13 12.11Q174.37 12.11 176.51 14.00Q178.65 15.89 179.38 19.29L179.38 19.29L166.23 23.84L165.30 21.53L175.83 17.75L175.02 18.25Q174.56 17.05 173.56 16.14Q172.56 15.24 170.82 15.24L170.82 15.24Q169.43 15.24 168.33 15.91Q167.23 16.59 166.60 17.76Q165.96 18.94 165.96 20.52L165.96 20.52Q165.96 22.14 166.63 23.36Q167.31 24.57 168.49 25.27Q169.66 25.96 171.13 25.96L171.13 25.96Q172.17 25.96 173.11 25.58Q174.06 25.19 174.91 24.61L174.91 24.61L176.72 27.54Q175.45 28.35 173.96 28.84Q172.48 29.32 171.05 29.32ZM213.03 23.11L214.77 26.81Q214.15 27.23 212.94 27.83Q211.72 28.43 210.08 28.86Q208.44 29.28 206.47 29.24L206.47 29.24Q203.20 29.20 200.59 28.08Q197.99 26.96 196.17 25.02Q194.36 23.07 193.38 20.54Q192.39 18.02 192.39 15.16L192.39 15.16Q192.39 12.00 193.40 9.35Q194.40 6.71 196.27 4.74Q198.14 2.78 200.67 1.70Q203.20 0.62 206.20 0.62L206.20 0.62Q208.79 0.62 210.87 1.31Q212.96 2.01 214.38 2.93L214.38 2.93L212.76 6.79Q211.64 6.02 210.00 5.30Q208.36 4.59 206.36 4.59L206.36 4.59Q204.39 4.59 202.64 5.38Q200.88 6.17 199.55 7.58Q198.22 8.99 197.45 10.86Q196.68 12.73 196.68 14.93L196.68 14.93Q196.68 17.17 197.37 19.06Q198.06 20.95 199.36 22.34Q200.65 23.72 202.46 24.50Q204.28 25.27 206.55 25.27L206.55 25.27Q208.71 25.27 210.35 24.61Q211.99 23.96 213.03 23.11L213.03 23.11ZM225.40 29.32L225.40 29.32Q223.13 29.32 221.27 28.37Q219.42 27.43 218.34 25.54Q217.26 23.65 217.26 20.87L217.26 20.87Q217.26 18.13 218.40 16.16Q219.54 14.20 221.41 13.14Q223.28 12.07 225.48 12.07L225.48 12.07Q227.79 12.07 229.28 13.06Q230.76 14.04 231.61 15.35L231.61 15.35L231.34 15.97L231.73 12.77L235.39 12.77L235.39 28.93L231.42 28.93L231.42 24.88L231.84 25.85Q231.69 26.15 231.19 26.71Q230.69 27.27 229.86 27.89Q229.03 28.51 227.93 28.91Q226.83 29.32 225.40 29.32ZM226.48 26.08L226.48 26.08Q227.75 26.08 228.76 25.61Q229.76 25.15 230.45 24.30Q231.15 23.45 231.42 22.30L231.42 22.30L231.42 18.94Q231.11 17.86 230.38 17.07Q229.64 16.28 228.62 15.82Q227.60 15.35 226.37 15.35L226.37 15.35Q224.98 15.35 223.82 16.03Q222.66 16.70 221.97 17.90Q221.27 19.10 221.27 20.68L221.27 20.68Q221.27 22.18 221.99 23.42Q222.70 24.65 223.90 25.36Q225.09 26.08 226.48 26.08ZM240.08 12.77L243.63 12.77L243.98 16.47L243.83 15.97Q244.64 14.23 246.33 13.17Q248.03 12.11 250.35 12.11L250.35 12.11Q252.62 12.11 254.11 13.46Q255.59 14.81 255.63 16.97L255.63 16.97L255.63 28.93L251.66 28.93L251.66 18.36Q251.62 17.13 250.92 16.34Q250.23 15.55 248.76 15.51L248.76 15.51Q247.45 15.51 246.37 16.30Q245.29 17.09 244.68 18.44Q244.06 19.79 244.06 21.56L244.06 21.56L244.06 28.93L240.08 28.93L240.08 12.77ZM266.61 29.36L266.46 29.36L257.31 12.77L262.02 12.77L267.96 25.27L265.53 25.15L270.93 12.77L275.37 12.77L266.61 29.36ZM283.76 29.32L283.76 29.32Q281.49 29.32 279.64 28.37Q277.78 27.43 276.70 25.54Q275.62 23.65 275.62 20.87L275.62 20.87Q275.62 18.13 276.76 16.16Q277.90 14.20 279.77 13.14Q281.64 12.07 283.84 12.07L283.84 12.07Q286.16 12.07 287.64 13.06Q289.13 14.04 289.97 15.35L289.97 15.35L289.70 15.97L290.09 12.77L293.75 12.77L293.75 28.93L289.78 28.93L289.78 24.88L290.21 25.85Q290.05 26.15 289.55 26.71Q289.05 27.27 288.22 27.89Q287.39 28.51 286.29 28.91Q285.19 29.32 283.76 29.32ZM284.84 26.08L284.84 26.08Q286.12 26.08 287.12 25.61Q288.12 25.15 288.82 24.30Q289.51 23.45 289.78 22.30L289.78 22.30L289.78 18.94Q289.47 17.86 288.74 17.07Q288.01 16.28 286.98 15.82Q285.96 15.35 284.73 15.35L284.73 15.35Q283.34 15.35 282.18 16.03Q281.02 16.70 280.33 17.90Q279.64 19.10 279.64 20.68L279.64 20.68Q279.64 22.18 280.35 23.42Q281.06 24.65 282.26 25.36Q283.45 26.08 284.84 26.08ZM303.15 29.28L303.15 29.28Q301.38 29.28 299.72 28.64Q298.06 28.01 296.98 26.77L296.98 26.77L298.68 24.53Q299.72 25.50 300.78 25.98Q301.84 26.46 302.81 26.46L302.81 26.46Q303.58 26.46 304.19 26.29Q304.81 26.12 305.20 25.69Q305.58 25.27 305.58 24.57L305.58 24.57Q305.58 23.76 305.04 23.30Q304.50 22.84 303.65 22.53Q302.81 22.22 301.84 21.95L301.84 21.95Q299.80 21.29 298.76 20.08Q297.71 18.86 297.71 17.21L297.71 17.21Q297.71 15.93 298.35 14.79Q298.99 13.66 300.30 12.92Q301.61 12.19 303.54 12.19L303.54 12.19Q305.31 12.19 306.66 12.60Q308.01 13.00 309.17 13.96L309.17 13.96L307.63 16.36Q306.93 15.66 305.99 15.30Q305.04 14.93 304.27 14.89L304.27 14.89Q303.58 14.89 303.00 15.10Q302.42 15.31 302.07 15.72Q301.73 16.12 301.73 16.66L301.73 16.66Q301.69 17.44 302.25 17.92Q302.81 18.40 303.69 18.69Q304.58 18.98 305.43 19.29L305.43 19.29Q306.63 19.64 307.55 20.23Q308.48 20.83 309.02 21.68Q309.56 22.53 309.56 23.84L309.56 23.84Q309.56 25.27 308.86 26.52Q308.17 27.77 306.74 28.53Q305.31 29.28 303.15 29.28Z" transform="translate(0, 0)"></path></g></svg></svg>
