<?xml version="1.0" encoding="UTF-8"?>
<svg width="512px" height="512px" viewBox="0 0 512 512" version="1.1" xmlns="http://www.w3.org/2000/svg">
    <title>icon</title>
    <defs>
        <linearGradient x1="-1118.34643%" y1="210.622392%" x2="316.775298%" y2="13.2330517%" id="linearGradient-1">
            <stop stop-color="#40B8EA" offset="0%"></stop>
            <stop stop-color="#6A71B1" offset="50.45%"></stop>
            <stop stop-color="#C93593" offset="100%"></stop>
        </linearGradient>
        <linearGradient x1="-1686.54346%" y1="289.750917%" x2="566.731776%" y2="-21.2736245%" id="linearGradient-2">
            <stop stop-color="#40B8EA" offset="0%"></stop>
            <stop stop-color="#6A71B1" offset="50.45%"></stop>
            <stop stop-color="#C93593" offset="100%"></stop>
        </linearGradient>
        <linearGradient x1="-2010.39023%" y1="331.607253%" x2="232.404651%" y2="25.1258906%" id="linearGradient-3">
            <stop stop-color="#40B8EA" offset="0%"></stop>
            <stop stop-color="#6A71B1" offset="50.45%"></stop>
            <stop stop-color="#C93593" offset="100%"></stop>
        </linearGradient>
        <linearGradient x1="-1666.5715%" y1="286.854331%" x2="586.703738%" y2="-24.1702102%" id="linearGradient-4">
            <stop stop-color="#40B8EA" offset="0%"></stop>
            <stop stop-color="#6A71B1" offset="50.45%"></stop>
            <stop stop-color="#C93593" offset="100%"></stop>
        </linearGradient>
        <linearGradient x1="-1029.8238%" y1="198.676053%" x2="422.588554%" y2="-1.41403743%" id="linearGradient-5">
            <stop stop-color="#40B8EA" offset="0%"></stop>
            <stop stop-color="#6A71B1" offset="50.45%"></stop>
            <stop stop-color="#C93593" offset="100%"></stop>
        </linearGradient>
        <linearGradient x1="-1331.59116%" y1="238.815721%" x2="911.203721%" y2="-67.665641%" id="linearGradient-6">
            <stop stop-color="#40B8EA" offset="0%"></stop>
            <stop stop-color="#6A71B1" offset="50.45%"></stop>
            <stop stop-color="#C93593" offset="100%"></stop>
        </linearGradient>
        <linearGradient x1="-676.885981%" y1="149.720746%" x2="1576.38925%" y2="-159.631621%" id="linearGradient-7">
            <stop stop-color="#40B8EA" offset="0%"></stop>
            <stop stop-color="#6A71B1" offset="50.45%"></stop>
            <stop stop-color="#C93593" offset="100%"></stop>
        </linearGradient>
        <linearGradient x1="-318.790966%" y1="100.753935%" x2="1183.39252%" y2="-105.852571%" id="linearGradient-8">
            <stop stop-color="#40B8EA" offset="0%"></stop>
            <stop stop-color="#6A71B1" offset="50.45%"></stop>
            <stop stop-color="#C93593" offset="100%"></stop>
        </linearGradient>
        <linearGradient x1="-799.459375%" y1="166.678087%" x2="205.125833%" y2="28.7429585%" id="linearGradient-9">
            <stop stop-color="#40B8EA" offset="0%"></stop>
            <stop stop-color="#6A71B1" offset="50.45%"></stop>
            <stop stop-color="#C93593" offset="100%"></stop>
        </linearGradient>
        <linearGradient x1="-719.22044%" y1="155.553468%" x2="797.134591%" y2="-52.6978289%" id="linearGradient-10">
            <stop stop-color="#40B8EA" offset="0%"></stop>
            <stop stop-color="#6A71B1" offset="50.45%"></stop>
            <stop stop-color="#C93593" offset="100%"></stop>
        </linearGradient>
        <linearGradient x1="-235.364655%" y1="89.361767%" x2="1843.0875%" y2="-196.614076%" id="linearGradient-11">
            <stop stop-color="#40B8EA" offset="0%"></stop>
            <stop stop-color="#6A71B1" offset="50.45%"></stop>
            <stop stop-color="#C93593" offset="100%"></stop>
        </linearGradient>
        <linearGradient x1="-166.962973%" y1="79.992329%" x2="1136.28243%" y2="-99.5681872%" id="linearGradient-12">
            <stop stop-color="#40B8EA" offset="0%"></stop>
            <stop stop-color="#6A71B1" offset="50.45%"></stop>
            <stop stop-color="#C93593" offset="100%"></stop>
        </linearGradient>
        <linearGradient x1="-431.57033%" y1="115.766558%" x2="2217.88516%" y2="-247.199603%" id="linearGradient-13">
            <stop stop-color="#40B8EA" offset="0%"></stop>
            <stop stop-color="#6A71B1" offset="50.45%"></stop>
            <stop stop-color="#C93593" offset="100%"></stop>
        </linearGradient>
        <linearGradient x1="-215.991373%" y1="86.434921%" x2="1674.99255%" y2="-172.655634%" id="linearGradient-14">
            <stop stop-color="#40B8EA" offset="0%"></stop>
            <stop stop-color="#6A71B1" offset="50.45%"></stop>
            <stop stop-color="#C93593" offset="100%"></stop>
        </linearGradient>
        <linearGradient x1="5.32324493%" y1="54.0170481%" x2="99.3561817%" y2="43.0091485%" id="linearGradient-15">
            <stop stop-color="#40B8EA" offset="0%"></stop>
            <stop stop-color="#6A71B1" offset="50.45%"></stop>
            <stop stop-color="#C93593" offset="100%"></stop>
        </linearGradient>
        <linearGradient x1="-153.648586%" y1="77.8567397%" x2="1085.94242%" y2="-92.182571%" id="linearGradient-16">
            <stop stop-color="#40B8EA" offset="0%"></stop>
            <stop stop-color="#6A71B1" offset="50.45%"></stop>
            <stop stop-color="#C93593" offset="100%"></stop>
        </linearGradient>
        <linearGradient x1="-519.195778%" y1="128.164307%" x2="753.102111%" y2="-46.7014148%" id="linearGradient-17">
            <stop stop-color="#40B8EA" offset="0%"></stop>
            <stop stop-color="#6A71B1" offset="50.45%"></stop>
            <stop stop-color="#C93593" offset="100%"></stop>
        </linearGradient>
        <linearGradient x1="-748.848062%" y1="159.848133%" x2="497.149096%" y2="-11.4419174%" id="linearGradient-18">
            <stop stop-color="#40B8EA" offset="0%"></stop>
            <stop stop-color="#6A71B1" offset="50.45%"></stop>
            <stop stop-color="#C93593" offset="100%"></stop>
        </linearGradient>
        <linearGradient x1="-1229.40759%" y1="225.885694%" x2="805.195359%" y2="-53.6044066%" id="linearGradient-19">
            <stop stop-color="#40B8EA" offset="0%"></stop>
            <stop stop-color="#6A71B1" offset="50.45%"></stop>
            <stop stop-color="#C93593" offset="100%"></stop>
        </linearGradient>
        <linearGradient x1="-881.115126%" y1="177.472136%" x2="1144.93866%" y2="-99.6742429%" id="linearGradient-20">
            <stop stop-color="#40B8EA" offset="0%"></stop>
            <stop stop-color="#6A71B1" offset="50.45%"></stop>
            <stop stop-color="#C93593" offset="100%"></stop>
        </linearGradient>
        <linearGradient x1="-365.716558%" y1="107.179727%" x2="1199.87078%" y2="-108.355911%" id="linearGradient-21">
            <stop stop-color="#40B8EA" offset="0%"></stop>
            <stop stop-color="#6A71B1" offset="50.45%"></stop>
            <stop stop-color="#C93593" offset="100%"></stop>
        </linearGradient>
        <linearGradient x1="-609.695214%" y1="140.766037%" x2="604.916625%" y2="-26.3763846%" id="linearGradient-22">
            <stop stop-color="#40B8EA" offset="0%"></stop>
            <stop stop-color="#6A71B1" offset="50.45%"></stop>
            <stop stop-color="#C93593" offset="100%"></stop>
        </linearGradient>
        <linearGradient x1="-1061.17889%" y1="202.334799%" x2="724.75037%" y2="-42.4236278%" id="linearGradient-23">
            <stop stop-color="#40B8EA" offset="0%"></stop>
            <stop stop-color="#6A71B1" offset="50.45%"></stop>
            <stop stop-color="#C93593" offset="100%"></stop>
        </linearGradient>
        <linearGradient x1="-883.439506%" y1="178.187255%" x2="1100.92634%" y2="-94.1556145%" id="linearGradient-24">
            <stop stop-color="#40B8EA" offset="0%"></stop>
            <stop stop-color="#6A71B1" offset="50.45%"></stop>
            <stop stop-color="#C93593" offset="100%"></stop>
        </linearGradient>
        <linearGradient x1="-177.934351%" y1="81.1741447%" x2="1662.52672%" y2="-170.950395%" id="linearGradient-25">
            <stop stop-color="#40B8EA" offset="0%"></stop>
            <stop stop-color="#6A71B1" offset="50.45%"></stop>
            <stop stop-color="#C93593" offset="100%"></stop>
        </linearGradient>
        <linearGradient x1="-757.770638%" y1="160.724554%" x2="1294.14809%" y2="-120.769726%" id="linearGradient-26">
            <stop stop-color="#40B8EA" offset="0%"></stop>
            <stop stop-color="#6A71B1" offset="50.45%"></stop>
            <stop stop-color="#C93593" offset="100%"></stop>
        </linearGradient>
        <linearGradient x1="-78.4031088%" y1="67.6651054%" x2="1170.82202%" y2="-104.513608%" id="linearGradient-27">
            <stop stop-color="#40B8EA" offset="0%"></stop>
            <stop stop-color="#6A71B1" offset="50.45%"></stop>
            <stop stop-color="#C93593" offset="100%"></stop>
        </linearGradient>
    </defs>
    <g id="Page-1" stroke="none" stroke-width="1" fill="none" fill-rule="evenodd">
        <g id="logo" transform="translate(4.000000, 53.000000)" fill-rule="nonzero">
            <g id="Layer_1">
                <polygon id="Path" fill="url(#linearGradient-1)" points="425.299222 214.935422 433.519455 200.652048 425.299222 186.466506 408.858755 186.466506 400.638521 200.652048 408.858755 214.935422"></polygon>
                <polygon id="Path" fill="url(#linearGradient-2)" points="398.192023 189.890602 403.378599 180.792289 398.192023 171.693976 387.721012 171.693976 382.436576 180.792289 387.721012 189.890602"></polygon>
                <polygon id="Path" fill="url(#linearGradient-3)" points="457.201556 110.940723 462.485992 101.940241 457.201556 92.8419277 446.730545 92.8419277 441.446109 101.940241 446.730545 110.940723"></polygon>
                <polygon id="Path" fill="url(#linearGradient-4)" points="364.038911 92.0592771 369.225486 101.15759 379.794358 101.15759 384.980934 92.0592771 379.794358 82.9609639 369.225486 82.9609639"></polygon>
                <polygon id="Path" fill="url(#linearGradient-5)" points="383.708755 140.583614 367.464008 140.583614 359.341634 154.671325 367.464008 168.759036 383.708755 168.759036 391.831128 154.671325"></polygon>
                <polygon id="Path" fill="url(#linearGradient-6)" points="313.151751 216.011566 318.436187 225.012048 328.907198 225.012048 334.191634 216.011566 328.907198 206.913253 318.436187 206.913253"></polygon>
                <polygon id="Path" fill="url(#linearGradient-7)" points="174.190661 102.722892 169.004086 93.7224096 158.533074 93.7224096 153.248638 102.722892 158.533074 111.821205 169.004086 111.821205"></polygon>
                <polygon id="Path" fill="url(#linearGradient-8)" points="147.866342 138.822651 139.939689 125.224096 124.282101 125.224096 116.453307 138.822651 124.282101 152.421205 139.939689 152.421205"></polygon>
                <polygon id="Path" fill="url(#linearGradient-9)" points="424.712062 99.2987952 436.455253 79.0477108 424.712062 58.6987952 401.225681 58.6987952 389.48249 79.0477108 401.225681 99.2987952"></polygon>
                <polygon id="Path" fill="url(#linearGradient-10)" points="272.148444 257.981205 264.31965 271.384096 272.148444 284.884819 287.610311 284.884819 295.439105 271.384096 287.610311 257.981205"></polygon>
                <polygon id="Path" fill="url(#linearGradient-11)" points="102.165759 233.914699 90.8140078 233.914699 85.1381323 243.795663 90.8140078 253.578795 102.165759 253.578795 107.841634 243.795663"></polygon>
                <polygon id="Path" fill="url(#linearGradient-12)" points="105.786576 327.343614 114.789689 342.996627 132.991634 342.996627 141.994747 327.343614 132.991634 311.592771 114.789689 311.592771"></polygon>
                <polygon id="Path" fill="url(#linearGradient-13)" points="135.340272 296.820241 130.838716 289.189398 122.031323 289.189398 117.529767 296.820241 122.031323 304.548916 130.838716 304.548916"></polygon>
                <polygon id="Path" fill="url(#linearGradient-14)" points="115.964008 384.379277 109.700973 395.140723 115.964008 405.902169 128.392218 405.902169 134.655253 395.140723 128.392218 384.379277"></polygon>
                <path d="M483.036576,191.94506 L502.314981,158.584578 L483.036576,125.224096 L444.479767,125.224096 L436.259533,139.409639 L424.124903,131.876627 L429.213619,123.071807 L416.883268,101.646747 L392.222568,101.646747 L382.925875,117.788916 L368.638327,116.321446 L369.127626,115.440964 L352.1,85.8959036 L345.347665,85.8959036 L350.142802,68.1884337 L365.996109,68.1884337 L378.326459,46.7633735 L365.996109,25.4361446 L341.335409,25.4361446 L329.005058,46.8612048 L341.335409,68.2862651 L346.228405,68.2862651 L341.433268,85.9937349 L317.946887,85.9937349 L304.540078,109.179759 L288.88249,105.56 L291.916148,100.277108 L275.671401,72.1995181 L260.796693,72.1995181 L260.111673,56.3508434 L268.429767,56.3508434 L280.760117,34.9257831 L268.429767,13.5007229 L243.769066,13.5007229 L231.438716,34.9257831 L243.769066,56.3508434 L256.392996,56.3508434 L257.078016,72.1995181 L243.279767,72.1995181 L227.035019,100.277108 L236.527432,116.712771 L214.508949,133.735422 L209.224514,124.637108 L185.542412,124.637108 L178.594358,82.0804819 L187.793191,82.0804819 L202.765759,56.253012 L187.988911,30.3277108 L158.141634,30.3277108 L143.169066,56.1551807 L158.141634,81.9826506 L175.071401,81.9826506 L182.019455,124.539277 L169.004086,124.539277 L163.52393,134.126747 L126.630739,100.081446 L136.123152,83.6457831 L120.269844,56.1551807 L88.4653696,56.1551807 L72.6120623,83.6457831 L88.4653696,111.136386 L120.269844,111.136386 L124.771401,103.30988 L161.664591,137.355181 L148.747082,159.562892 L149.334241,160.541205 L68.6976654,164.943614 L53.3336576,138.333494 L18.1040856,138.333494 L0.489299611,168.856867 L18.1040856,199.380241 L53.3336576,199.380241 L70.9484436,168.856867 L70.7527237,168.465542 L151.3893,164.063133 L160.294553,179.520482 L146.007004,190.281928 L140.722568,181.183614 L112.73463,181.183614 L98.7406615,205.445783 L103.731518,214.05494 L73.0035019,226.283855 L65.9575875,214.152771 L39.7311284,214.152771 L26.6178988,236.751807 L39.7311284,259.448675 L65.9575875,259.448675 L79.0708171,236.751807 L74.8628405,229.512289 L105.590856,217.283373 L112.73463,229.707952 L140.722568,229.707952 L154.716537,205.445783 L147.768482,193.510361 L162.056031,182.748916 L168.906226,194.586506 L186.129572,194.586506 L185.542412,218.457349 L169.689105,218.457349 L152.759339,247.708916 L156.380156,253.97012 L148.062062,256.415904 L140.526848,243.306506 L117.725486,243.306506 L106.373735,263.068434 L117.725486,282.830361 L140.526848,282.830361 L151.878599,263.068434 L149.921401,259.742169 L158.239494,257.296386 L169.689105,277.058313 L179.964397,277.058313 L177.811479,289.482892 L160.000973,289.482892 L144.441245,316.484337 L158.239494,340.257349 L153.444358,347.888193 L134.948833,347.888193 L124.673541,365.595663 L134.948833,383.303133 L155.401556,383.303133 L165.676848,365.595663 L156.575875,349.844819 L160.685992,343.387952 L191.316148,343.387952 L206.875875,316.386506 L191.316148,289.38506 L181.725875,289.38506 L183.878794,276.960482 L203.548638,276.960482 L209.909533,265.905542 L219.304086,273.14506 L213.43249,283.319518 L223.805642,301.222651 L244.454086,301.222651 L254.827237,283.319518 L244.454086,265.416386 L223.805642,265.416386 L221.163424,269.916627 L211.768872,262.677108 L220.380545,247.708916 L203.548638,218.359518 L189.261089,218.359518 L189.848249,194.488675 L209.420233,194.488675 L218.227626,179.129157 L234.178794,190.575422 L222.827043,210.337349 L242.007588,243.6 L280.466537,243.6 L288.295331,230.001446 L308.845914,243.306506 L301.89786,255.339759 L314.61965,277.351807 L339.96537,277.351807 L352.68716,255.339759 L339.96537,233.327711 L314.61965,233.327711 L310.705253,240.078072 L290.154669,226.773012 L299.647082,210.337349 L297.396304,206.326265 L334.485214,200.945542 L343.096887,215.815904 L365.996109,215.815904 L367.757588,212.685301 L382.338716,232.251566 L370.497665,252.698313 L385.763813,279.112771 L416.296109,279.112771 L431.562257,252.698313 L425.690661,242.523855 L439.97821,234.306024 L445.458366,243.795663 L468.455447,243.795663 L480.002918,223.838072 L468.455447,203.880482 L445.458366,203.880482 L433.910895,223.838072 L438.118872,231.07759 L423.831323,239.295422 L416.296109,226.283855 L385.763813,226.283855 L384.295914,228.82747 L369.714786,209.261205 L377.44572,195.956145 L365.996109,176.096386 L342.999027,176.096386 L331.549416,195.956145 L332.430156,197.521446 L295.341245,202.902169 L283.304475,182.064096 L315.598249,140.877108 L317.946887,144.986024 L352.00214,144.986024 L366.485409,119.843373 L380.772957,121.310843 L379.794358,123.071807 L392.124708,144.496867 L416.883268,144.496867 L422.265564,135.10506 L434.400195,142.638072 L425.201362,158.584578 L444.479767,191.94506 L483.036576,191.94506 Z M281.347276,178.64 L280.466537,177.074699 L242.007588,177.074699 L236.038132,187.444819 L220.086965,175.998554 L229.579377,159.562892 L216.466148,136.866024 L238.48463,119.843373 L243.279767,128.256867 L275.671401,128.256867 L286.827432,108.886265 L302.485019,112.506024 L300.821401,115.440964 L313.543191,137.453012 L281.347276,178.64 Z" id="Shape" fill="url(#linearGradient-15)"></path>
                <polygon id="Path" fill="url(#linearGradient-16)" points="102.557198 156.236627 112.049611 139.800964 102.557198 123.365301 83.4745136 123.365301 73.9821012 139.800964 83.4745136 156.236627"></polygon>
                <polygon id="Path" fill="url(#linearGradient-17)" points="219.597665 32.3821687 228.894358 16.3378313 219.597665 0.293493976 201.10214 0.293493976 191.805447 16.3378313 201.10214 32.3821687"></polygon>
                <polygon id="Path" fill="url(#linearGradient-18)" points="313.93463 35.2192771 323.427043 18.8814458 313.93463 2.44578313 294.949805 2.44578313 285.555253 18.8814458 294.949805 35.2192771"></polygon>
                <polygon id="Path" fill="url(#linearGradient-19)" points="299.549222 51.1657831 293.677626 61.2424096 299.549222 71.2212048 311.096693 71.2212048 316.870428 61.2424096 311.096693 51.1657831"></polygon>
                <polygon id="Path" fill="url(#linearGradient-20)" points="212.551751 66.3296386 218.423346 76.3084337 229.970817 76.3084337 235.842412 66.3296386 229.970817 56.253012 218.423346 56.253012"></polygon>
                <polygon id="Path" fill="url(#linearGradient-21)" points="133.480934 51.8506024 141.016148 38.7412048 133.480934 25.7296386 118.410506 25.7296386 110.875292 38.7412048 118.410506 51.8506024"></polygon>
                <polygon id="Path" fill="url(#linearGradient-22)" points="267.842607 130.996145 258.154475 147.823133 267.842607 164.65012 287.218872 164.65012 297.004864 147.823133 287.218872 130.996145"></polygon>
                <polygon id="Path" fill="url(#linearGradient-23)" points="306.497276 172.280964 313.151751 183.629398 326.264981 183.629398 332.919455 172.280964 326.264981 160.834699 313.151751 160.834699"></polygon>
                <polygon id="Path" fill="url(#linearGradient-24)" points="236.723152 139.116145 230.753696 149.388434 236.723152 159.660723 248.564202 159.660723 254.533658 149.388434 248.564202 139.116145"></polygon>
                <polygon id="Path" fill="url(#linearGradient-25)" points="94.8262646 193.608193 88.3675097 182.553253 75.6457198 182.553253 69.186965 193.608193 75.6457198 204.663133 88.3675097 204.663133"></polygon>
                <polygon id="Path" fill="url(#linearGradient-26)" points="187.010311 105.266506 192.784047 115.245301 204.233658 115.245301 210.007393 105.266506 204.233658 95.3855422 192.784047 95.3855422"></polygon>
                <polygon id="Path" fill="url(#linearGradient-27)" points="68.7955253 131.876627 78.2879377 115.440964 68.7955253 99.1031325 49.9085603 99.1031325 40.5140078 115.440964 49.9085603 131.876627"></polygon>
            </g>
        </g>
    </g>
</svg>
