<?xml version="1.0" encoding="UTF-8" standalone="no"?>
<svg xmlns="http://www.w3.org/2000/svg" version="1.1" viewBox="195.5 64.12323 393.5388 527" width="393.5388" height="527">
  <defs>
    <filter id="Shadow" filterUnits="userSpaceOnUse" x="156.14612" y="11.423232">
      <feOffset in="SourceAlpha" result="offset" dx="3" dy="3"/>
      <feFlood flood-color="black" flood-opacity=".150557" result="flood"/>
      <feComposite in="flood" in2="offset" operator="in" result="color"/>
      <feMerge>
        <feMergeNode in="color"/>
        <feMergeNode in="SourceGraphic"/>
      </feMerge>
    </filter>
  </defs>
  <metadata> Produced by OmniGraffle 7.20\n2022-07-28 03:16:18 +0000</metadata>
  <g id="Canvas_1" fill="none" stroke="none" fill-opacity="1" stroke-dasharray="none" stroke-opacity="1">
    <title>Canvas 1</title>
    <g id="Canvas_1_Layer_1">
      <title>Layer 1</title>
      <g id="Group_44">
        <g id="Line_38">
          <line x1="524.8747" y1="428.12323" x2="524.8747" y2="544.1232" stroke="#2f2f2f" stroke-linecap="square" stroke-linejoin="miter" stroke-width="4"/>
        </g>
        <g id="Line_36">
          <line x1="524.8747" y1="268.12323" x2="524.8747" y2="384.12323" stroke="#2f2f2f" stroke-linecap="square" stroke-linejoin="miter" stroke-width="4"/>
        </g>
        <g id="Line_27">
          <line x1="467.0418" y1="108.12323" x2="515.65497" y2="224.12323" stroke="#2f2f2f" stroke-linecap="square" stroke-linejoin="miter" stroke-width="4"/>
        </g>
        <g id="Graphic_2" filter="url(#Shadow)">
          <path
            d="M 418.65795 66.12323 L 496.98616 66.12323 C 508.03185 66.12323 516.98616 75.07754 516.98616 86.12323 L 516.98616 86.12323 C 516.98616 97.16893 508.03185 106.12323 496.98616 106.12323 L 418.65795 106.12323 C 407.61226 106.12323 398.65795 97.16893 398.65795 86.12323 L 398.65795 86.12323 C 398.65795 75.07754 407.61226 66.12323 418.65795 66.12323 Z"
            fill="#ff8080"/>
          <path
            d="M 418.65795 66.12323 L 496.98616 66.12323 C 508.03185 66.12323 516.98616 75.07754 516.98616 86.12323 L 516.98616 86.12323 C 516.98616 97.16893 508.03185 106.12323 496.98616 106.12323 L 418.65795 106.12323 C 407.61226 106.12323 398.65795 97.16893 398.65795 86.12323 L 398.65795 86.12323 C 398.65795 75.07754 407.61226 66.12323 418.65795 66.12323 Z"
            stroke="#3d3d3d" stroke-linecap="square" stroke-linejoin="miter" stroke-width="4"/>
          <text transform="translate(439.61956 76.12323)" fill="black">
            <tspan font-family="Avenir" font-weight="bold" font-size="15" fill="black" x="0" y="15">Math</tspan>
          </text>
        </g>
        <g id="Graphic_3" filter="url(#Shadow)">
          <path
            d="M 286.48652 226.12323 L 364.81473 226.12323 C 375.8604 226.12323 384.81473 235.07754 384.81473 246.12323 L 384.81473 246.12323 C 384.81473 257.16893 375.8604 266.12323 364.81473 266.12323 L 286.48652 266.12323 C 275.44082 266.12323 266.48652 257.16893 266.48652 246.12323 L 266.48652 246.12323 C 266.48652 235.07754 275.44082 226.12323 286.48652 226.12323 Z"
            fill="#aac3ca"/>
          <path
            d="M 286.48652 226.12323 L 364.81473 226.12323 C 375.8604 226.12323 384.81473 235.07754 384.81473 246.12323 L 384.81473 246.12323 C 384.81473 257.16893 375.8604 266.12323 364.81473 266.12323 L 286.48652 266.12323 C 275.44082 266.12323 266.48652 257.16893 266.48652 246.12323 L 266.48652 246.12323 C 266.48652 235.07754 275.44082 226.12323 286.48652 226.12323 Z"
            stroke="#3d3d3d" stroke-linecap="square" stroke-linejoin="miter" stroke-width="4"/>
          <text transform="translate(288.81812 236.12323)" fill="black">
            <tspan font-family="Avenir" font-weight="bold" font-size="15" fill="black" x="43343107e-20" y="15">Arithmetic</tspan>
          </text>
        </g>
        <g id="Graphic_28" filter="url(#Shadow)">
          <path
            d="M 485.7106 226.12323 L 564.0388 226.12323 C 575.0845 226.12323 584.0388 235.07754 584.0388 246.12323 L 584.0388 246.12323 C 584.0388 257.16893 575.0845 266.12323 564.0388 266.12323 L 485.7106 266.12323 C 474.6649 266.12323 465.7106 257.16893 465.7106 246.12323 L 465.7106 246.12323 C 465.7106 235.07754 474.6649 226.12323 485.7106 226.12323 Z"
            fill="#e3eac5"/>
          <path
            d="M 485.7106 226.12323 L 564.0388 226.12323 C 575.0845 226.12323 584.0388 235.07754 584.0388 246.12323 L 584.0388 246.12323 C 584.0388 257.16893 575.0845 266.12323 564.0388 266.12323 L 485.7106 266.12323 C 474.6649 266.12323 465.7106 257.16893 465.7106 246.12323 L 465.7106 246.12323 C 465.7106 235.07754 474.6649 226.12323 485.7106 226.12323 Z"
            stroke="#3d3d3d" stroke-linecap="square" stroke-linejoin="miter" stroke-width="4"/>
          <text transform="translate(496.2547 236.12323)" fill="black">
            <tspan font-family="Avenir" font-weight="bold" font-size="15" fill="black" x="8029133e-19" y="15">Calculus</tspan>
          </text>
        </g>
        <g id="Graphic_6" filter="url(#Shadow)">
          <path
            d="M 217.5 386.12323 L 295.8282 386.12323 C 306.8739 386.12323 315.8282 395.07754 315.8282 406.12323 L 315.8282 406.12323 C 315.8282 417.16893 306.8739 426.12323 295.8282 426.12323 L 217.5 426.12323 C 206.4543 426.12323 197.5 417.16893 197.5 406.12323 L 197.5 406.12323 C 197.5 395.07754 206.4543 386.12323 217.5 386.12323 Z"
            fill="#aac3ca"/>
          <path
            d="M 217.5 386.12323 L 295.8282 386.12323 C 306.8739 386.12323 315.8282 395.07754 315.8282 406.12323 L 315.8282 406.12323 C 315.8282 417.16893 306.8739 426.12323 295.8282 426.12323 L 217.5 426.12323 C 206.4543 426.12323 197.5 417.16893 197.5 406.12323 L 197.5 406.12323 C 197.5 395.07754 206.4543 386.12323 217.5 386.12323 Z"
            stroke="#3d3d3d" stroke-linecap="square" stroke-linejoin="miter" stroke-width="4"/>
          <text transform="translate(226.0866 396.12323)" fill="black">
            <tspan font-family="Avenir" font-weight="bold" font-size="15" fill="black" x="0" y="15">Addition</tspan>
          </text>
        </g>
        <g id="Graphic_8" filter="url(#Shadow)">
          <path
            d="M 351.6053 386.12323 L 429.9335 386.12323 C 440.9792 386.12323 449.9335 395.07754 449.9335 406.12323 L 449.9335 406.12323 C 449.9335 417.16893 440.9792 426.12323 429.9335 426.12323 L 351.6053 426.12323 C 340.5596 426.12323 331.6053 417.16893 331.6053 406.12323 L 331.6053 406.12323 C 331.6053 395.07754 340.5596 386.12323 351.6053 386.12323 Z"
            fill="#aac3ca"/>
          <path
            d="M 351.6053 386.12323 L 429.9335 386.12323 C 440.9792 386.12323 449.9335 395.07754 449.9335 406.12323 L 449.9335 406.12323 C 449.9335 417.16893 440.9792 426.12323 429.9335 426.12323 L 351.6053 426.12323 C 340.5596 426.12323 331.6053 417.16893 331.6053 406.12323 L 331.6053 406.12323 C 331.6053 395.07754 340.5596 386.12323 351.6053 386.12323 Z"
            stroke="#3d3d3d" stroke-linecap="square" stroke-linejoin="miter" stroke-width="4"/>
          <text transform="translate(350.2019 396.12323)" fill="black">
            <tspan font-family="Avenir" font-weight="bold" font-size="15" fill="black" x="0" y="15">Subtraction</tspan>
          </text>
        </g>
        <g id="Line_10">
          <line x1="439.6485" y1="108.12323" x2="343.8242" y2="224.12323" stroke="#2f2f2f" stroke-linecap="square" stroke-linejoin="miter" stroke-width="4"/>
        </g>
        <g id="Line_11">
          <line x1="316.16498" y1="268.12323" x2="266.14975" y2="384.12323" stroke="#2f2f2f" stroke-linecap="square" stroke-linejoin="miter" stroke-width="4"/>
        </g>
        <g id="Line_13">
          <line x1="334.60446" y1="268.12323" x2="381.81557" y2="384.12323" stroke="#2f2f2f" stroke-linecap="square" stroke-linejoin="miter" stroke-width="4"/>
        </g>
        <g id="Graphic_37" filter="url(#Shadow)">
          <path
            d="M 485.7106 386.12323 L 564.0388 386.12323 C 575.0845 386.12323 584.0388 395.07754 584.0388 406.12323 L 584.0388 406.12323 C 584.0388 417.16893 575.0845 426.12323 564.0388 426.12323 L 485.7106 426.12323 C 474.6649 426.12323 465.7106 417.16893 465.7106 406.12323 L 465.7106 406.12323 C 465.7106 395.07754 474.6649 386.12323 485.7106 386.12323 Z"
            fill="#e3eac5"/>
          <path
            d="M 485.7106 386.12323 L 564.0388 386.12323 C 575.0845 386.12323 584.0388 395.07754 584.0388 406.12323 L 584.0388 406.12323 C 584.0388 417.16893 575.0845 426.12323 564.0388 426.12323 L 485.7106 426.12323 C 474.6649 426.12323 465.7106 417.16893 465.7106 406.12323 L 465.7106 406.12323 C 465.7106 395.07754 474.6649 386.12323 485.7106 386.12323 Z"
            stroke="#3d3d3d" stroke-linecap="square" stroke-linejoin="miter" stroke-width="4"/>
          <text transform="translate(494.3122 396.12323)" fill="#404040">
            <tspan font-family="Avenir" font-weight="bold" font-size="15" fill="#404040" x="0" y="15">Integrals</tspan>
          </text>
        </g>
        <g id="Graphic_39" filter="url(#Shadow)">
          <path
            d="M 485.7106 546.1232 L 564.0388 546.1232 C 575.0845 546.1232 584.0388 555.07754 584.0388 566.1232 L 584.0388 566.1232 C 584.0388 577.1689 575.0845 586.1232 564.0388 586.1232 L 485.7106 586.1232 C 474.6649 586.1232 465.7106 577.1689 465.7106 566.1232 L 465.7106 566.1232 C 465.7106 555.07754 474.6649 546.1232 485.7106 546.1232 Z"
            fill="#e3eac5"/>
          <path
            d="M 485.7106 546.1232 L 564.0388 546.1232 C 575.0845 546.1232 584.0388 555.07754 584.0388 566.1232 L 584.0388 566.1232 C 584.0388 577.1689 575.0845 586.1232 564.0388 586.1232 L 485.7106 586.1232 C 474.6649 586.1232 465.7106 577.1689 465.7106 566.1232 L 465.7106 566.1232 C 465.7106 555.07754 474.6649 546.1232 485.7106 546.1232 Z"
            stroke="#3d3d3d" stroke-linecap="square" stroke-linejoin="miter" stroke-width="4"/>
          <text transform="translate(518.2147 556.1232)" fill="#404040">
            <tspan font-family="Avenir" font-weight="bold" font-size="15" fill="#404040" x="0" y="15">...</tspan>
          </text>
        </g>
      </g>
    </g>
  </g>
</svg>
