<?xml version="1.0" encoding="UTF-8"?>
<svg width="816px" height="412px" viewBox="0 0 816 412" version="1.1" xmlns="http://www.w3.org/2000/svg" xmlns:xlink="http://www.w3.org/1999/xlink">
    <title>kc-logo-transparent 2</title>
    <defs>
        <linearGradient x1="-1118.34643%" y1="215.927308%" x2="316.775298%" y2="12.0187403%" id="linearGradient-1">
            <stop stop-color="#40B8EA" offset="0%"></stop>
            <stop stop-color="#6A71B1" offset="50.45%"></stop>
            <stop stop-color="#C93593" offset="100%"></stop>
        </linearGradient>
        <linearGradient x1="-1686.54346%" y1="293.126277%" x2="566.731776%" y2="-22.2770581%" id="linearGradient-2">
            <stop stop-color="#40B8EA" offset="0%"></stop>
            <stop stop-color="#6A71B1" offset="50.45%"></stop>
            <stop stop-color="#C93593" offset="100%"></stop>
        </linearGradient>
        <linearGradient x1="-2010.39023%" y1="341.37163%" x2="232.404651%" y2="24.2634122%" id="linearGradient-3">
            <stop stop-color="#40B8EA" offset="0%"></stop>
            <stop stop-color="#6A71B1" offset="50.45%"></stop>
            <stop stop-color="#C93593" offset="100%"></stop>
        </linearGradient>
        <linearGradient x1="-1666.5715%" y1="290.188911%" x2="586.703738%" y2="-25.2144237%" id="linearGradient-4">
            <stop stop-color="#40B8EA" offset="0%"></stop>
            <stop stop-color="#6A71B1" offset="50.45%"></stop>
            <stop stop-color="#C93593" offset="100%"></stop>
        </linearGradient>
        <linearGradient x1="-1029.8238%" y1="203.09162%" x2="422.588554%" y2="-2.94099556%" id="linearGradient-5">
            <stop stop-color="#40B8EA" offset="0%"></stop>
            <stop stop-color="#6A71B1" offset="50.45%"></stop>
            <stop stop-color="#C93593" offset="100%"></stop>
        </linearGradient>
        <linearGradient x1="-1331.59116%" y1="245.362669%" x2="911.203721%" y2="-71.745549%" id="linearGradient-6">
            <stop stop-color="#40B8EA" offset="0%"></stop>
            <stop stop-color="#6A71B1" offset="50.45%"></stop>
            <stop stop-color="#C93593" offset="100%"></stop>
        </linearGradient>
        <linearGradient x1="-676.885981%" y1="152.22087%" x2="1576.38925%" y2="-164.887348%" id="linearGradient-7">
            <stop stop-color="#40B8EA" offset="0%"></stop>
            <stop stop-color="#6A71B1" offset="50.45%"></stop>
            <stop stop-color="#C93593" offset="100%"></stop>
        </linearGradient>
        <linearGradient x1="-318.790966%" y1="101.839422%" x2="1183.39252%" y2="-109.185831%" id="linearGradient-8">
            <stop stop-color="#40B8EA" offset="0%"></stop>
            <stop stop-color="#6A71B1" offset="50.45%"></stop>
            <stop stop-color="#C93593" offset="100%"></stop>
        </linearGradient>
        <linearGradient x1="-799.459375%" y1="165.81047%" x2="205.125833%" y2="28.9010256%" id="linearGradient-9">
            <stop stop-color="#40B8EA" offset="0%"></stop>
            <stop stop-color="#6A71B1" offset="50.45%"></stop>
            <stop stop-color="#C93593" offset="100%"></stop>
        </linearGradient>
        <linearGradient x1="-719.22044%" y1="158.126295%" x2="797.134591%" y2="-55.2010511%" id="linearGradient-10">
            <stop stop-color="#40B8EA" offset="0%"></stop>
            <stop stop-color="#6A71B1" offset="50.45%"></stop>
            <stop stop-color="#C93593" offset="100%"></stop>
        </linearGradient>
        <linearGradient x1="-235.364655%" y1="86.4376036%" x2="1843.0875%" y2="-178.293256%" id="linearGradient-11">
            <stop stop-color="#40B8EA" offset="0%"></stop>
            <stop stop-color="#6A71B1" offset="50.45%"></stop>
            <stop stop-color="#C93593" offset="100%"></stop>
        </linearGradient>
        <linearGradient x1="-166.962973%" y1="79.2930002%" x2="1136.28243%" y2="-96.0807171%" id="linearGradient-12">
            <stop stop-color="#40B8EA" offset="0%"></stop>
            <stop stop-color="#6A71B1" offset="50.45%"></stop>
            <stop stop-color="#C93593" offset="100%"></stop>
        </linearGradient>
        <linearGradient x1="-431.57033%" y1="114.969401%" x2="2217.88516%" y2="-243.597244%" id="linearGradient-13">
            <stop stop-color="#40B8EA" offset="0%"></stop>
            <stop stop-color="#6A71B1" offset="50.45%"></stop>
            <stop stop-color="#C93593" offset="100%"></stop>
        </linearGradient>
        <linearGradient x1="-215.991373%" y1="89.2100441%" x2="1674.99255%" y2="-189.61455%" id="linearGradient-14">
            <stop stop-color="#40B8EA" offset="0%"></stop>
            <stop stop-color="#6A71B1" offset="50.45%"></stop>
            <stop stop-color="#C93593" offset="100%"></stop>
        </linearGradient>
        <linearGradient x1="5.32324493%" y1="54.011817%" x2="99.3561817%" y2="43.0182522%" id="linearGradient-15">
            <stop stop-color="#40B8EA" offset="0%"></stop>
            <stop stop-color="#6A71B1" offset="50.45%"></stop>
            <stop stop-color="#C93593" offset="100%"></stop>
        </linearGradient>
        <linearGradient x1="-153.648586%" y1="77.7644333%" x2="1085.94242%" y2="-91.7114334%" id="linearGradient-16">
            <stop stop-color="#40B8EA" offset="0%"></stop>
            <stop stop-color="#6A71B1" offset="50.45%"></stop>
            <stop stop-color="#C93593" offset="100%"></stop>
        </linearGradient>
        <linearGradient x1="-519.195778%" y1="127.602747%" x2="753.102111%" y2="-46.0066776%" id="linearGradient-17">
            <stop stop-color="#40B8EA" offset="0%"></stop>
            <stop stop-color="#6A71B1" offset="50.45%"></stop>
            <stop stop-color="#C93593" offset="100%"></stop>
        </linearGradient>
        <linearGradient x1="-748.848062%" y1="159.009131%" x2="497.149096%" y2="-10.9726339%" id="linearGradient-18">
            <stop stop-color="#40B8EA" offset="0%"></stop>
            <stop stop-color="#6A71B1" offset="50.45%"></stop>
            <stop stop-color="#C93593" offset="100%"></stop>
        </linearGradient>
        <linearGradient x1="-1229.40759%" y1="213.346883%" x2="805.195359%" y2="-46.2184959%" id="linearGradient-19">
            <stop stop-color="#40B8EA" offset="0%"></stop>
            <stop stop-color="#6A71B1" offset="50.45%"></stop>
            <stop stop-color="#C93593" offset="100%"></stop>
        </linearGradient>
        <linearGradient x1="-881.115126%" y1="169.38584%" x2="1144.93866%" y2="-90.1795393%" id="linearGradient-20">
            <stop stop-color="#40B8EA" offset="0%"></stop>
            <stop stop-color="#6A71B1" offset="50.45%"></stop>
            <stop stop-color="#C93593" offset="100%"></stop>
        </linearGradient>
        <linearGradient x1="-365.716558%" y1="107.567738%" x2="1199.87078%" y2="-109.430485%" id="linearGradient-21">
            <stop stop-color="#40B8EA" offset="0%"></stop>
            <stop stop-color="#6A71B1" offset="50.45%"></stop>
            <stop stop-color="#C93593" offset="100%"></stop>
        </linearGradient>
        <linearGradient x1="-609.695214%" y1="140.854313%" x2="604.916625%" y2="-26.4506654%" id="linearGradient-22">
            <stop stop-color="#40B8EA" offset="0%"></stop>
            <stop stop-color="#6A71B1" offset="50.45%"></stop>
            <stop stop-color="#C93593" offset="100%"></stop>
        </linearGradient>
        <linearGradient x1="-1061.17889%" y1="215.788227%" x2="724.75037%" y2="-50.5860086%" id="linearGradient-23">
            <stop stop-color="#40B8EA" offset="0%"></stop>
            <stop stop-color="#6A71B1" offset="50.45%"></stop>
            <stop stop-color="#C93593" offset="100%"></stop>
        </linearGradient>
        <linearGradient x1="-883.439506%" y1="185.696179%" x2="1100.92634%" y2="-102.599929%" id="linearGradient-24">
            <stop stop-color="#40B8EA" offset="0%"></stop>
            <stop stop-color="#6A71B1" offset="50.45%"></stop>
            <stop stop-color="#C93593" offset="100%"></stop>
        </linearGradient>
        <linearGradient x1="-177.934351%" y1="80.2880951%" x2="1662.52672%" y2="-164.670415%" id="linearGradient-25">
            <stop stop-color="#40B8EA" offset="0%"></stop>
            <stop stop-color="#6A71B1" offset="50.45%"></stop>
            <stop stop-color="#C93593" offset="100%"></stop>
        </linearGradient>
        <linearGradient x1="-757.770638%" y1="153.104817%" x2="1294.14809%" y2="-109.017857%" id="linearGradient-26">
            <stop stop-color="#40B8EA" offset="0%"></stop>
            <stop stop-color="#6A71B1" offset="50.45%"></stop>
            <stop stop-color="#C93593" offset="100%"></stop>
        </linearGradient>
        <linearGradient x1="-78.4031088%" y1="67.439704%" x2="1170.82202%" y2="-102.542061%" id="linearGradient-27">
            <stop stop-color="#40B8EA" offset="0%"></stop>
            <stop stop-color="#6A71B1" offset="50.45%"></stop>
            <stop stop-color="#C93593" offset="100%"></stop>
        </linearGradient>
    </defs>
    <g id="Page-1" stroke="none" stroke-width="1" fill="none" fill-rule="evenodd">
        <g id="kc-logo-transparent-2" fill-rule="nonzero">
            <g id="kc-logo-transparent">
                <g id="Layer_1">
                    <polygon id="Path" fill="url(#linearGradient-1)" points="327.75 166.14545 334 155.10765 327.75 144.14545 315.25 144.14545 309 155.10765 315.25 166.14545"></polygon>
                    <polygon id="Path" fill="url(#linearGradient-2)" points="307.037383 146.14545 311 139.14545 307.037383 132.14545 299.037383 132.14545 295 139.14545 299.037383 146.14545"></polygon>
                    <polygon id="Path" fill="url(#linearGradient-3)" points="352.981395 85.1454505 357 78.1832883 352.981395 71.1454505 345.018605 71.1454505 341 78.1832883 345.018605 85.1454505"></polygon>
                    <polygon id="Path" fill="url(#linearGradient-4)" points="281 71.1454505 284.962617 78.1454505 293.037383 78.1454505 297 71.1454505 293.037383 64.1454505 284.962617 64.1454505"></polygon>
                    <polygon id="Path" fill="url(#linearGradient-5)" points="295.75 108.14545 283.25 108.14545 277 119.14545 283.25 130.14545 295.75 130.14545 302 119.14545"></polygon>
                    <polygon id="Path" fill="url(#linearGradient-6)" points="242 166.183288 246.018605 173.14545 253.981395 173.14545 258 166.183288 253.981395 159.14545 246.018605 159.14545"></polygon>
                    <polygon id="Path" fill="url(#linearGradient-7)" points="134 79.1076126 130.037383 72.1454505 122.037383 72.1454505 118 79.1076126 122.037383 86.1454505 130.037383 86.1454505"></polygon>
                    <polygon id="Path" fill="url(#linearGradient-8)" points="114 106.64545 107.943925 96.1454505 95.9813084 96.1454505 90 106.64545 95.9813084 117.14545 107.943925 117.14545"></polygon>
                    <polygon id="Path" fill="url(#linearGradient-9)" points="328 76.1454505 337 60.6827999 328 45.1454505 310 45.1454505 301 60.6827999 310 76.1454505"></polygon>
                    <polygon id="Path" fill="url(#linearGradient-10)" points="210.037736 199.14545 204 209.607269 210.037736 220.14545 221.962264 220.14545 228 209.607269 221.962264 199.14545"></polygon>
                    <polygon id="Path" fill="url(#linearGradient-11)" points="78.5 180.14545 69.5 180.14545 65 187.682764 69.5 195.14545 78.5 195.14545 83 187.682764"></polygon>
                    <polygon id="Path" fill="url(#linearGradient-12)" points="82 252.182834 88.9621622 264.14545 103.037838 264.14545 110 252.182834 103.037838 240.14545 88.9621622 240.14545"></polygon>
                    <polygon id="Path" fill="url(#linearGradient-13)" points="105 229.107234 101.461538 223.14545 94.5384615 223.14545 91 229.107234 94.5384615 235.14545 101.461538 235.14545"></polygon>
                    <polygon id="Path" fill="url(#linearGradient-14)" points="89.7686275 296.14545 85 304.64545 89.7686275 313.14545 99.2313725 313.14545 104 304.64545 99.2313725 296.14545"></polygon>
                    <path d="M372.1328,147.66926 L387,121.958943 L372.1328,96.2486251 L342.398401,96.2486251 L336.059087,107.181165 L326.701053,101.375609 L330.62539,94.5898949 L321.11642,78.0779901 L302.098479,78.0779901 L294.929017,90.5184663 L283.910686,89.3875139 L284.288027,88.7089425 L271.156591,65.9391013 L265.949298,65.9391013 L269.647231,52.2922759 L281.87305,52.2922759 L291.38202,35.7803711 L281.87305,19.3438632 L262.855109,19.3438632 L253.346139,35.8557679 L262.855109,52.3676727 L266.62851,52.3676727 L262.930577,66.0144981 L244.818253,66.0144981 L234.479134,83.8835457 L222.404251,81.0938632 L224.74376,77.0224346 L212.216069,55.3835457 L200.74493,55.3835457 L200.216654,43.16926 L206.631435,43.16926 L216.140406,26.6573552 L206.631435,10.1454505 L187.613495,10.1454505 L178.104524,26.6573552 L187.613495,43.16926 L197.348869,43.16926 L197.877145,55.3835457 L187.236154,55.3835457 L174.708463,77.0224346 L182.028861,89.6891013 L165.048557,102.808149 L160.973284,95.7962441 L142.710023,95.7962441 L137.351794,62.9986251 L144.445788,62.9986251 L155.992395,43.0938632 L144.596724,23.1137044 L121.578978,23.1137044 L110.032371,43.0184663 L121.578978,62.9232282 L134.634945,62.9232282 L139.993175,95.7208473 L129.955928,95.7208473 L125.729719,103.109736 L97.2782761,76.8716409 L104.598674,64.2049743 L92.3728549,43.0184663 L67.8457488,43.0184663 L55.6199298,64.2049743 L67.8457488,85.3914822 L92.3728549,85.3914822 L95.8443838,79.3597362 L124.295827,105.597831 L114.334048,122.712911 L114.786856,123.466879 L52.601209,126.859736 L40.7527301,106.3518 L13.5842434,106.3518 L0,129.875609 L13.5842434,153.399419 L40.7527301,153.399419 L54.3369735,129.875609 L54.1860374,129.574022 L116.371685,126.181165 L123.239275,138.093863 L112.220944,146.387514 L108.145671,139.375609 L86.5618175,139.375609 L75.7698908,158.074022 L79.6187598,164.708943 L55.9218019,174.133546 L50.4881045,164.784339 L30.2626755,164.784339 L20.149961,182.201006 L30.2626755,199.69307 L50.4881045,199.69307 L60.600819,182.201006 L57.3556942,176.621641 L81.0526521,167.197038 L86.5618175,176.772435 L108.145671,176.772435 L118.937598,158.074022 L113.579368,148.875609 L124.597699,140.581958 L129.88046,149.704974 L143.162832,149.704974 L142.710023,168.1018 L130.484204,168.1018 L117.428237,190.64545 L120.220554,195.470847 L113.805772,197.355768 L107.994735,187.252593 L90.4106864,187.252593 L81.6563963,202.482752 L90.4106864,217.712911 L107.994735,217.712911 L116.749025,202.482752 L115.239665,199.91926 L121.654446,198.034339 L130.484204,213.264498 L138.408346,213.264498 L136.74805,222.839895 L123.012871,222.839895 L111.013456,243.649419 L121.654446,261.970847 L117.956513,267.8518 L103.693058,267.8518 L95.7689158,281.498625 L103.693058,295.14545 L119.465874,295.14545 L127.390016,281.498625 L120.37149,269.359736 L123.541147,264.383546 L147.162637,264.383546 L159.162051,243.574022 L147.162637,222.764498 L139.766771,222.764498 L141.427067,213.189101 L156.596139,213.189101 L161.50156,204.66926 L168.74649,210.248625 L164.218409,218.089895 L172.218019,231.887514 L188.141771,231.887514 L196.141381,218.089895 L188.141771,204.292276 L172.218019,204.292276 L170.180382,207.76053 L162.935452,202.181165 L169.576638,190.64545 L156.596139,168.026403 L145.577808,168.026403 L146.030616,149.629577 L161.12422,149.629577 L167.916342,137.792276 L180.217629,146.613704 L171.463339,161.843863 L186.25507,187.478784 L215.914002,187.478784 L221.951443,176.998625 L237.799727,187.252593 L232.441498,196.526403 L242.25234,213.490689 L261.798557,213.490689 L271.609399,196.526403 L261.798557,179.562117 L242.25234,179.562117 L239.233619,184.764498 L223.385335,174.51053 L230.705733,161.843863 L228.969969,158.752593 L257.572348,154.605768 L264.213534,166.066085 L281.87305,166.066085 L283.231474,163.653387 L294.476209,178.732752 L285.344579,194.490689 L297.11759,214.847831 L320.663612,214.847831 L332.436622,194.490689 L327.908541,186.649419 L338.926872,180.316085 L343.153081,187.629577 L360.888066,187.629577 L369.793292,172.248625 L360.888066,156.867673 L343.153081,156.867673 L334.247855,172.248625 L337.49298,177.82799 L326.474649,184.161323 L320.663612,174.133546 L297.11759,174.133546 L295.985569,176.093863 L284.740835,161.014498 L290.702808,150.76053 L281.87305,135.454974 L264.138066,135.454974 L255.308307,150.76053 L255.98752,151.966879 L227.38514,156.113704 L218.102574,140.054181 L243.00702,108.312117 L244.818253,111.478784 L271.081123,111.478784 L282.25039,92.1017997 L293.268721,93.232752 L292.514041,94.5898949 L302.023011,111.1018 L321.11642,111.1018 L325.267161,103.863704 L334.625195,109.66926 L327.531201,121.958943 L342.398401,147.66926 L372.1328,147.66926 Z M216.593214,137.415292 L215.914002,136.208943 L186.25507,136.208943 L181.651521,144.201006 L169.350234,135.379577 L176.670632,122.712911 L166.557917,105.220847 L183.538222,92.1017997 L187.236154,98.5859266 L212.216069,98.5859266 L220.819423,83.6573552 L232.894306,86.4470378 L231.611349,88.7089425 L241.422192,105.673228 L216.593214,137.415292 Z" id="Shape" fill="url(#linearGradient-15)"></path>
                    <polygon id="Path" fill="url(#linearGradient-16)" points="78.7686375 120.14545 86 107.64545 78.7686375 95.1454505 64.2313625 95.1454505 57 107.64545 64.2313625 120.14545"></polygon>
                    <polygon id="Path" fill="url(#linearGradient-17)" points="169.730871 25.1454505 177 12.6454505 169.730871 0.145450457 155.269129 0.145450457 148 12.6454505 155.269129 25.1454505"></polygon>
                    <polygon id="Path" fill="url(#linearGradient-18)" points="241.731266 27.1454505 249 14.6827639 241.731266 2.14545046 227.193798 2.14545046 220 14.6827639 227.193798 27.1454505"></polygon>
                    <polygon id="Path" fill="url(#linearGradient-19)" points="230.556962 40.1454505 226 47.6820358 230.556962 55.1454505 239.518987 55.1454505 244 47.6820358 239.518987 40.1454505"></polygon>
                    <polygon id="Path" fill="url(#linearGradient-20)" points="164 50.6820358 168.537815 58.1454505 177.462185 58.1454505 182 50.6820358 177.462185 43.1454505 168.537815 43.1454505"></polygon>
                    <polygon id="Path" fill="url(#linearGradient-21)" points="103.25 40.1454505 109 30.1079973 103.25 20.1454505 91.75 20.1454505 86 30.1079973 91.75 40.1454505"></polygon>
                    <polygon id="Path" fill="url(#linearGradient-22)" points="206.481108 101.14545 199 114.14545 206.481108 127.14545 221.443325 127.14545 229 114.14545 221.443325 101.14545"></polygon>
                    <polygon id="Path" fill="url(#linearGradient-23)" points="237 133.184077 242.037037 142.14545 251.962963 142.14545 257 133.184077 251.962963 124.14545 242.037037 124.14545"></polygon>
                    <polygon id="Path" fill="url(#linearGradient-24)" points="182.518519 107.14545 178 115.14545 182.518519 123.14545 191.481481 123.14545 196 115.14545 191.481481 107.14545"></polygon>
                    <polygon id="Path" fill="url(#linearGradient-25)" points="73 149.64545 67.9618321 141.14545 58.0381679 141.14545 53 149.64545 58.0381679 158.14545 67.9618321 158.14545"></polygon>
                    <polygon id="Path" fill="url(#linearGradient-26)" points="144 81.6085046 148.519149 89.1454505 157.480851 89.1454505 162 81.6085046 157.480851 74.1454505 148.519149 74.1454505"></polygon>
                    <polygon id="Path" fill="url(#linearGradient-27)" points="52.7124352 101.14545 60 88.608137 52.7124352 76.1454505 38.2124352 76.1454505 31 88.608137 38.2124352 101.14545"></polygon>
                </g>
                <g id="Shape" transform="translate(194.000000, 383.000000)" fill="#FF595F">
                    <path d="M8.33333959,14.3130036 L5.73534964,16.9955257 L5.73534964,25.3472956 L0.62228431,25.3472956 L0.62228431,0.347295601 L5.73534964,0.347295601 L5.73534964,11.3262779 L15.5192692,0.347295601 L21.5720331,0.347295601 L11.5946461,11.0773841 L22.6222843,25.3472956 L16.4866059,25.3472956 L8.33333959,14.3130036 Z M59.6222843,25.3472956 L54.5882707,25.3472956 L44.6835088,8.06300357 L44.6835088,25.3472956 L39.6222843,25.3472956 L39.6222843,0.347295601 L44.8195632,0.347295601 L54.5882707,17.3273841 L54.5882707,0.347295601 L59.6222843,0.347295601 L59.6222843,25.3472956 Z M90.1487211,0.347295601 L90.1487211,0.347295601 C93.5150046,0.347295601 96.2291809,1.43931135 98.2912498,3.62334286 L98.2912498,3.62334286 C100.511939,6.00429524 101.622284,9.08342163 101.622284,12.860722 L101.622284,12.860722 C101.622284,16.5843167 100.511939,19.6544922 98.2912498,22.0712483 L98.2912498,22.0712483 C96.2644299,24.2552798 93.5502537,25.3472956 90.1487211,25.3472956 L90.1487211,25.3472956 C86.7119395,25.3472956 83.9801387,24.2552798 81.9533188,22.0712483 L81.9533188,22.0712483 C79.7326291,19.6544922 78.6222843,16.5843167 78.6222843,12.860722 L78.6222843,12.860722 C78.6222843,9.11922543 79.7326291,6.04009904 81.9533188,3.62334286 L81.9533188,3.62334286 C83.9977632,1.43931135 86.729564,0.347295601 90.1487211,0.347295601 Z M89.6503968,3.3472956 L89.6503968,3.3472956 C87.3639175,3.3472956 85.5740915,4.21624612 84.2809188,5.95414715 L84.2809188,5.95414715 C83.1751625,7.48867679 82.6222843,9.45768168 82.6222843,11.8611618 L82.6222843,11.8611618 C82.6222843,14.6159199 83.3438372,16.7698078 84.7869429,18.3228258 L84.7869429,18.3228258 C86.0238907,19.6724723 87.645042,20.3472956 89.6503968,20.3472956 L89.6503968,20.3472956 C91.9181344,20.3472956 93.6892187,19.4783451 94.9636498,17.7404441 L94.9636498,17.7404441 C96.0694061,16.2244027 96.6222843,14.264642 96.6222843,11.8611618 L96.6222843,11.8611618 C96.6222843,9.10640381 95.9007314,6.94327167 94.4576257,5.37176542 L94.4576257,5.37176542 C93.2019363,4.02211887 91.5995266,3.3472956 89.6503968,3.3472956 Z M148.622284,0.347295601 L141.81807,25.3472956 L137.272855,25.3472956 L133.135893,5.85061418 L129.135015,25.3472956 L124.562583,25.3472956 L117.622284,0.347295601 L122.984005,0.347295601 L126.794365,19.0972956 L130.631942,0.347295601 L135.612627,0.347295601 L139.586288,19.1249505 L143.260564,0.347295601 L148.622284,0.347295601 Z M196.743875,25.3472956 L192.483648,5.87826905 L192.483648,25.3472956 L187.622284,25.3472956 L187.622284,0.347295601 L194.888193,0.347295601 L199.174557,20.2311452 L203.304102,0.347295601 L210.622284,0.347295601 L210.622284,25.3472956 L205.787057,25.3472956 L205.787057,5.87826905 L201.579102,25.3472956 L196.743875,25.3472956 Z M241.148721,0.347295601 L241.148721,0.347295601 C244.532629,0.347295601 247.246805,1.43931135 249.29125,3.62334286 L249.29125,3.62334286 C251.511939,6.00429524 252.622284,9.08342163 252.622284,12.860722 L252.622284,12.860722 C252.622284,16.5843167 251.511939,19.6544922 249.29125,22.0712483 L249.29125,22.0712483 C247.26443,24.2552798 244.550254,25.3472956 241.148721,25.3472956 L241.148721,25.3472956 C237.711939,25.3472956 234.980139,24.2552798 232.953319,22.0712483 L232.953319,22.0712483 C230.732629,19.6544922 229.622284,16.5843167 229.622284,12.860722 L229.622284,12.860722 C229.622284,9.11922543 230.732629,6.04009904 232.953319,3.62334286 L232.953319,3.62334286 C235.015388,1.43931135 237.747189,0.347295601 241.148721,0.347295601 Z M240.650397,3.3472956 L240.650397,3.3472956 C238.382659,3.3472956 236.592833,4.21624612 235.280919,5.95414715 L235.280919,5.95414715 C234.175162,7.48867679 233.622284,9.45768168 233.622284,11.8611618 L233.622284,11.8611618 C233.622284,14.6159199 234.343837,16.7698078 235.786943,18.3228258 L235.786943,18.3228258 C237.042632,19.6724723 238.663784,20.3472956 240.650397,20.3472956 L240.650397,20.3472956 C242.918134,20.3472956 244.689219,19.4783451 245.96365,17.7404441 L245.96365,17.7404441 C247.069406,16.2244027 247.622284,14.264642 247.622284,11.8611618 L247.622284,11.8611618 C247.622284,9.10640381 246.900731,6.94327167 245.457626,5.37176542 L245.457626,5.37176542 C244.220678,4.02211887 242.618268,3.3472956 240.650397,3.3472956 Z M282.406068,15.4191983 L276.622284,15.4191983 L276.622284,25.3472956 L271.622284,25.3472956 L271.622284,0.347295601 L284.730392,0.347295601 C286.802464,0.347295601 288.379041,0.909611235 289.460122,2.0342425 L289.460122,2.0342425 C290.685347,3.32480298 291.29796,5.02096817 291.29796,7.12273808 L291.29796,7.12273808 C291.29796,10.1463369 289.910573,12.2020154 287.135798,13.2897735 L287.135798,13.2897735 C288.703365,13.9166171 289.65832,14.7001717 290.000663,15.6404372 L290.000663,15.6404372 C290.252915,16.304154 290.442104,18.5441983 290.56823,22.3605699 L290.56823,22.3605699 C290.586248,23.319272 290.9376,23.9922071 291.622284,24.3793752 L291.622284,24.3793752 L291.622284,25.3472956 L286.216879,25.3472956 C285.712374,24.3885935 285.460122,22.9781953 285.460122,21.1161009 L285.460122,21.1161009 C285.460122,20.6551865 285.47814,20.0836525 285.514176,19.4014991 L285.514176,19.4014991 C285.514176,18.9405847 285.514176,18.599508 285.514176,18.3782691 L285.514176,18.3782691 C285.514176,16.4055552 284.47814,15.4191983 282.406068,15.4191983 L282.406068,15.4191983 Z M277.622284,5.3472956 L277.622284,11.3472956 L283.278709,11.3472956 C284.468653,11.3472956 285.298262,11.1515509 285.767536,10.7600616 L285.767536,10.7600616 C286.337368,10.2664445 286.622284,9.44942326 286.622284,8.30899773 L286.622284,8.30899773 C286.622284,7.21963603 286.337368,6.4366573 285.767536,5.96006156 L285.767536,5.96006156 C285.281502,5.55155092 284.451893,5.3472956 283.278709,5.3472956 L283.278709,5.3472956 L277.622284,5.3472956 Z M328.020213,14.5895522 L315.850095,14.5895522 L315.850095,21.0331363 L329.622284,21.0331363 L329.622284,25.3472956 L310.622284,25.3472956 L310.622284,0.347295601 L328.975835,0.347295601 L328.975835,4.63380003 L315.850095,4.63380003 L315.850095,10.2753929 L328.020213,10.2753929 L328.020213,14.5895522 Z M349.675856,24.6386863 L349.675856,24.6386863 C348.981411,24.5503861 348.455618,24.2943155 348.098475,23.8704744 L348.098475,23.8704744 C347.781014,23.5349336 347.622284,23.0846024 347.622284,22.519481 L347.622284,22.519481 C347.622284,22.0603199 347.751253,21.6453088 348.009189,21.2744479 L348.009189,21.2744479 C348.445697,20.6563464 349.100459,20.3472956 349.973475,20.3472956 L349.973475,20.3472956 C350.727443,20.3472956 351.362364,20.6033662 351.878237,21.1155075 C352.374268,21.6276488 352.622284,22.2634104 352.622284,23.0227923 L352.622284,23.0227923 C352.622284,24.8594369 351.729427,26.6342713 349.943713,28.3472956 L349.943713,28.3472956 L348.782999,28.3472956 L347.890141,27.711534 C348.465538,26.9698122 348.872284,26.3517106 349.11038,25.8572294 L349.11038,25.8572294 C349.388157,25.4157283 349.576649,25.0095473 349.675856,24.6386863 Z M412.622284,25.3472956 L407.588271,25.3472956 L397.683509,8.06300357 L397.683509,25.3472956 L392.622284,25.3472956 L392.622284,0.347295601 L397.819563,0.347295601 L407.588271,17.3273841 L407.588271,0.347295601 L412.622284,0.347295601 L412.622284,25.3472956 Z M443.148721,0.347295601 L443.148721,0.347295601 C446.515005,0.347295601 449.229181,1.43931135 451.29125,3.62334286 L451.29125,3.62334286 C453.511939,6.00429524 454.622284,9.08342163 454.622284,12.860722 L454.622284,12.860722 C454.622284,16.5843167 453.511939,19.6544922 451.29125,22.0712483 L451.29125,22.0712483 C449.26443,24.2552798 446.550254,25.3472956 443.148721,25.3472956 L443.148721,25.3472956 C439.711939,25.3472956 436.980139,24.2552798 434.953319,22.0712483 L434.953319,22.0712483 C432.732629,19.6544922 431.622284,16.5843167 431.622284,12.860722 L431.622284,12.860722 C431.622284,9.11922543 432.732629,6.04009904 434.953319,3.62334286 L434.953319,3.62334286 C436.997763,1.43931135 439.729564,0.347295601 443.148721,0.347295601 Z M443.650397,3.3472956 L443.650397,3.3472956 C441.363918,3.3472956 439.574092,4.21624612 438.280919,5.95414715 L438.280919,5.95414715 C437.175162,7.48867679 436.622284,9.45768168 436.622284,11.8611618 L436.622284,11.8611618 C436.622284,14.6159199 437.343837,16.7698078 438.786943,18.3228258 L438.786943,18.3228258 C440.023891,19.6724723 441.645042,20.3472956 443.650397,20.3472956 L443.650397,20.3472956 C445.918134,20.3472956 447.689219,19.4783451 448.96365,17.7404441 L448.96365,17.7404441 C450.069406,16.2244027 450.622284,14.264642 450.622284,11.8611618 L450.622284,11.8611618 C450.622284,9.10640381 449.900731,6.94327167 448.457626,5.37176542 L448.457626,5.37176542 C447.201936,4.02211887 445.599527,3.3472956 443.650397,3.3472956 Z M493.622284,0.347295601 L498.730523,0.347295601 L498.730523,21.0331363 L510.622284,21.0331363 L510.622284,25.3472956 L493.622284,25.3472956 L493.622284,0.347295601 Z M545.020213,14.5895522 L532.850095,14.5895522 L532.850095,21.0331363 L546.622284,21.0331363 L546.622284,25.3472956 L527.622284,25.3472956 L527.622284,0.347295601 L545.975835,0.347295601 L545.975835,4.63380003 L532.850095,4.63380003 L532.850095,10.2753929 L545.020213,10.2753929 L545.020213,14.5895522 Z M583.763224,8.02720967 L583.763224,8.02720967 L579.092083,8.02720967 C578.931009,5.5746497 577.239734,4.34836971 574.018257,4.34836971 L574.018257,4.34836971 C572.729667,4.34836971 571.700584,4.60794723 570.931009,5.12710226 C570.179331,5.64625729 569.803492,6.3444313 569.803492,7.22162428 L569.803492,7.22162428 C569.803492,8.08091536 570.116691,8.72538368 570.74309,9.15502922 C571.387385,9.58467476 572.613336,9.96956556 574.420942,10.3097016 L574.420942,10.3097016 L578.206177,11.0078756 C580.443313,11.4375212 582.071949,12.171499 583.092083,13.209809 C584.112217,14.266021 584.622284,15.7429275 584.622284,17.6405287 L584.622284,17.6405287 C584.622284,20.2363038 583.628996,22.2144635 581.642419,23.5750077 L581.642419,23.5750077 C579.924298,24.756533 577.606624,25.3472956 574.689398,25.3472956 L574.689398,25.3472956 C571.360539,25.3472956 568.828101,24.586465 567.092083,23.0648037 L567.092083,23.0648037 C565.57083,21.7221613 564.747564,19.8693149 564.622284,17.5062645 L564.622284,17.5062645 L569.454499,17.5062645 C569.63347,20.0662358 571.458973,21.3462215 574.931009,21.3462215 L574.931009,21.3462215 C576.452262,21.3462215 577.651367,21.077693 578.528325,20.5406361 C579.405282,19.9856773 579.843761,19.2158957 579.843761,18.2312913 L579.843761,18.2312913 C579.843761,17.2824907 579.494768,16.5485129 578.796781,16.0293579 C578.116691,15.5102029 576.935483,15.0984592 575.253157,14.794127 L575.253157,14.794127 L571.870606,14.1496587 C569.400808,13.6842093 567.646893,12.9591825 566.608861,11.9745781 C565.552933,10.9899737 565.024969,9.57572381 565.024969,7.73182836 L565.024969,7.73182836 C565.024969,5.2255627 565.937721,3.32796155 567.763224,2.03902492 L567.763224,2.03902492 C569.356065,0.911205375 571.503716,0.347295601 574.206177,0.347295601 L574.206177,0.347295601 C577.481345,0.347295601 579.942195,1.09022435 581.588727,2.57608185 L581.588727,2.57608185 C583.020495,3.88292038 583.745327,5.69996298 583.763224,8.02720967 Z M620.763224,8.02720967 L620.763224,8.02720967 L616.092083,8.02720967 C615.931009,5.5746497 614.239734,4.34836971 611.018257,4.34836971 L611.018257,4.34836971 C609.729667,4.34836971 608.700584,4.60794723 607.931009,5.12710226 C607.179331,5.64625729 606.803492,6.3444313 606.803492,7.22162428 L606.803492,7.22162428 C606.803492,8.08091536 607.116691,8.72538368 607.74309,9.15502922 C608.387385,9.58467476 609.613336,9.96956556 611.420942,10.3097016 L611.420942,10.3097016 L615.206177,11.0078756 C617.443313,11.4375212 619.071949,12.171499 620.092083,13.209809 C621.112217,14.266021 621.622284,15.7429275 621.622284,17.6405287 L621.622284,17.6405287 C621.622284,20.2363038 620.628996,22.2144635 618.642419,23.5750077 L618.642419,23.5750077 C616.924298,24.756533 614.606624,25.3472956 611.689398,25.3472956 L611.689398,25.3472956 C608.360539,25.3472956 605.828101,24.586465 604.092083,23.0648037 L604.092083,23.0648037 C602.57083,21.7221613 601.747564,19.8693149 601.622284,17.5062645 L601.622284,17.5062645 L606.454499,17.5062645 C606.63347,20.0662358 608.458973,21.3462215 611.931009,21.3462215 L611.931009,21.3462215 C613.470159,21.3462215 614.669264,21.077693 615.528325,20.5406361 C616.405282,19.9856773 616.843761,19.2158957 616.843761,18.2312913 L616.843761,18.2312913 C616.843761,17.2824907 616.494768,16.5485129 615.796781,16.0293579 C615.116691,15.5102029 613.935483,15.0984592 612.253157,14.794127 L612.253157,14.794127 L608.870606,14.1496587 C606.400808,13.6842093 604.646893,12.9591825 603.608861,11.9745781 C602.552933,10.9899737 602.024969,9.57572381 602.024969,7.73182836 L602.024969,7.73182836 C602.024969,5.2255627 602.937721,3.32796155 604.763224,2.03902492 L604.763224,2.03902492 C606.356065,0.911205375 608.503716,0.347295601 611.206177,0.347295601 L611.206177,0.347295601 C614.481345,0.347295601 616.942195,1.09022435 618.588727,2.57608185 L618.588727,2.57608185 C620.020495,3.88292038 620.745327,5.69996298 620.763224,8.02720967 Z"></path>
                </g>
                <g id="Shape" transform="translate(195.000000, 242.000000)" fill="#0B3954">
                    <path d="M14.3005085,6.76871795 L14.3005085,44.6666667 L13.9232768,49.4425641 L15.8780226,46.6594872 L53.4640113,6.76871795 L71.7083051,6.76871795 L32.0303955,48.5148718 L73.5601695,102.973846 L55.7274011,102.973846 L21.7079661,57.3794872 L14.3005085,64.6635897 L14.3005085,102.973846 L-5.68434189e-14,102.973846 L-5.68434189e-14,6.76871795 L14.3005085,6.76871795 Z M82.6480226,47.4497436 L94.8223164,47.4497436 L96.0225989,60.1625641 L95.4738983,58.4446154 C97.3257627,54.4589744 100.195009,51.2521368 104.081638,48.8241026 C107.968267,46.3960684 112.552203,45.1820513 117.833446,45.1820513 L117.833446,45.1820513 C123.046102,45.1820513 127.344256,46.7282051 130.72791,49.8205128 C134.134426,52.9128205 135.883409,56.9328205 135.974859,61.8805128 L135.974859,61.8805128 L135.974859,102.973846 L122.325932,102.973846 L122.325932,66.6564103 C122.257345,63.8389744 121.422863,61.5254701 119.822486,59.7158974 C118.244972,57.9063248 115.775819,56.9557265 112.415028,56.8641026 L112.415028,56.8641026 C109.420038,56.8641026 106.687966,57.7688889 104.218814,59.5784615 C101.749661,61.3880342 99.8063465,63.8389744 98.3888701,66.9312821 C96.9713936,70.0235897 96.2626554,73.5969231 96.2626554,77.6512821 L96.2626554,77.6512821 L96.2626554,102.973846 L82.6480226,102.973846 L82.6480226,47.4497436 Z M147.291808,74.6276923 L147.291808,74.6276923 C147.291808,69.0615385 148.617834,64.0451282 151.269887,59.5784615 C153.92194,55.1117949 157.579944,51.5957265 162.243898,49.0302564 C166.907853,46.4647863 172.246252,45.1820513 178.259096,45.1820513 L178.259096,45.1820513 C184.340527,45.1820513 189.678927,46.4647863 194.274294,49.0302564 C198.846798,51.5957265 202.39049,55.1117949 204.905367,59.5784615 C207.420245,64.0451282 208.677684,69.0615385 208.677684,74.6276923 L208.677684,74.6276923 C208.677684,80.1938462 207.420245,85.2217094 204.905367,89.7112821 C202.39049,94.2237607 198.846798,97.785641 194.274294,100.396923 C189.678927,103.008205 184.294802,104.313846 178.121921,104.313846 L178.121921,104.313846 C172.200527,104.313846 166.930716,103.122735 162.312486,100.740513 C157.671394,98.3353846 154.01339,94.9109402 151.338475,90.4671795 C148.640697,86.0005128 147.291808,80.7206838 147.291808,74.6276923 Z M161.043616,74.7651282 L161.043616,74.7651282 C161.043616,78.2010256 161.798079,81.3162393 163.307006,84.1107692 C164.79307,86.8823932 166.816403,89.0813675 169.377006,90.7076923 C171.937608,92.3569231 174.806855,93.1815385 177.984746,93.1815385 L177.984746,93.1815385 C181.254087,93.1815385 184.169058,92.3569231 186.729661,90.7076923 C189.290264,89.0813675 191.290734,86.8823932 192.731073,84.1107692 C194.194275,81.3162393 194.925876,78.2010256 194.925876,74.7651282 L194.925876,74.7651282 C194.925876,71.3063248 194.194275,68.2140171 192.731073,65.4882051 C191.290734,62.7394872 189.290264,60.5290598 186.729661,58.8569231 C184.169058,57.1618803 181.254087,56.314359 177.984746,56.314359 L177.984746,56.314359 C174.715405,56.314359 171.800433,57.1618803 169.239831,58.8569231 C166.70209,60.5290598 164.70162,62.7509402 163.238418,65.5225641 C161.775217,68.317094 161.043616,71.3979487 161.043616,74.7651282 Z M242.902881,47.4497436 L254.66565,47.4497436 L270.132147,83.114359 L267.491525,83.2174359 L281.654859,47.4497436 L295.029435,47.4497436 L269.61774,106.306667 L251.887853,68.5117949 L235.632599,106.306667 L210.083729,47.4497436 L223.458305,47.4497436 L239.850734,84.8323077 L235.083898,84.0420513 L246.983842,56.4517949 L242.902881,47.4497436 Z M302.917006,102.973846 L302.917006,-1.42108547e-14 L316.531638,-1.42108547e-14 L316.531638,102.973846 L302.917006,102.973846 Z M358.541525,104.313846 L358.541525,104.313846 C352.117156,104.313846 346.607288,103.054017 342.011921,100.534359 C337.439416,98.0147009 333.918588,94.5215385 331.449435,90.0548718 C328.980282,85.5882051 327.745706,80.4916239 327.745706,74.7651282 L327.745706,74.7651282 C327.745706,69.2676923 329.128889,64.297094 331.895254,59.8533333 C334.684482,55.3866667 338.433936,51.8247863 343.143616,49.1676923 C347.853296,46.5105983 353.077382,45.1820513 358.815876,45.1820513 L358.815876,45.1820513 C366.223333,45.1820513 372.373352,47.3466667 377.265932,51.6758974 C382.158512,56.0051282 385.450716,62.0637607 387.142542,69.8517949 L387.142542,69.8517949 L342.011921,85.4851282 L338.856893,77.5482051 L374.968249,64.5605128 L372.190452,66.2784615 C371.115913,63.5297436 369.435518,61.1131624 367.149266,59.0287179 C364.863013,56.9671795 361.730847,55.9364103 357.752768,55.9364103 L357.752768,55.9364103 C354.574878,55.9364103 351.728493,56.7037607 349.213616,58.2384615 C346.698738,59.7960684 344.72113,61.9148718 343.280791,64.5948718 C341.817589,67.2977778 341.085989,70.4588034 341.085989,74.0779487 L341.085989,74.0779487 C341.085989,77.7887179 341.863315,81.0413675 343.417966,83.8358974 C344.949755,86.6075214 347.064539,88.7950427 349.762316,90.3984615 C352.437232,91.9789744 355.455085,92.7692308 358.815876,92.7692308 L358.815876,92.7692308 C361.193578,92.7692308 363.468399,92.3340171 365.640339,91.4635897 C367.789416,90.5702564 369.835612,89.4593162 371.778927,88.1307692 L371.778927,88.1307692 L377.986102,98.1979487 C375.082561,100.053333 371.938964,101.542222 368.555311,102.664615 C365.148795,103.764103 361.810866,104.313846 358.541525,104.313846 Z M420.030282,104.313846 L420.030282,104.313846 C414.817627,104.313846 410.142241,103.099829 406.004124,100.671795 C401.866008,98.2437607 398.596667,94.7735043 396.196102,90.2610256 C393.818399,85.748547 392.629548,80.4916239 392.629548,74.4902564 L392.629548,74.4902564 C392.629548,68.305641 393.909849,63.025812 396.470452,58.6507692 C399.031055,54.2757265 402.494727,50.92 406.861469,48.5835897 C411.228211,46.2242735 416.143653,45.0446154 421.607797,45.0446154 L421.607797,45.0446154 C425.837363,45.0446154 429.872599,45.9150427 433.713503,47.6558974 C437.554407,49.3738462 440.526535,51.7789744 442.629887,54.8712821 L442.629887,54.8712821 L442.252655,59.5097436 L442.252655,-1.42108547e-14 L455.730113,-1.42108547e-14 L455.730113,102.973846 L442.11548,102.973846 L442.11548,89.8487179 L443.555819,93.4220513 C440.835179,96.514359 437.485819,99.102735 433.50774,101.187179 C429.552524,103.271624 425.060038,104.313846 420.030282,104.313846 Z M424.248418,92.7692308 L424.248418,92.7692308 C427.334859,92.7692308 430.06693,92.2423932 432.444633,91.1887179 C434.845198,90.1350427 436.879962,88.6117949 438.548927,86.6189744 C440.217891,84.6261538 441.406742,82.3011966 442.11548,79.6441026 L442.11548,79.6441026 L442.11548,68.5117949 C441.498192,66.0379487 440.332203,63.8504274 438.617514,61.9492308 C436.902825,60.0480342 434.810904,58.5705983 432.341751,57.5169231 C429.849736,56.4632479 427.151959,55.9364103 424.248418,55.9364103 L424.248418,55.9364103 C420.979077,55.9364103 418.006949,56.7037607 415.332034,58.2384615 C412.634256,59.7960684 410.473748,61.9377778 408.850508,64.6635897 C407.204407,67.4123077 406.381356,70.5962393 406.381356,74.2153846 L406.381356,74.2153846 C406.381356,77.674188 407.204407,80.8123077 408.850508,83.6297436 C410.473748,86.4471795 412.657119,88.6805128 415.400621,90.3297436 C418.121262,91.9560684 421.070527,92.7692308 424.248418,92.7692308 Z M498.940282,130.564103 L498.940282,130.564103 C494.619266,130.564103 490.869812,130.071624 487.691921,129.086667 C484.536893,128.124615 481.70194,126.784615 479.187062,125.066667 C476.672185,123.325812 474.260188,121.48188 471.951073,119.534872 L471.951073,119.534872 L480.044407,110.154872 C482.765047,112.697436 485.588569,114.747521 488.514972,116.305128 C491.418512,117.839829 494.813597,118.607179 498.700226,118.607179 L498.700226,118.607179 C502.563992,118.607179 505.89049,117.965812 508.679718,116.683077 C511.446083,115.423248 513.583729,113.636581 515.092655,111.323077 C516.601582,109.032479 517.356045,106.295214 517.356045,103.111282 L517.356045,103.111282 L517.458927,88.6805128 L518.384859,91.3261538 C516.898795,94.9452991 514.120998,98.0147009 510.051469,100.534359 C506.004802,103.054017 501.020772,104.313846 495.099379,104.313846 L495.099379,104.313846 C490.092486,104.313846 485.439962,103.031111 481.141808,100.465641 C476.866516,97.9001709 473.46,94.4070085 470.92226,89.9861538 C468.361657,85.5652991 467.081356,80.5717949 467.081356,75.005641 L467.081356,75.005641 C467.081356,69.1875214 468.418814,64.0451282 471.093729,59.5784615 C473.791507,55.1117949 477.346629,51.5728205 481.759096,48.9615385 C486.171563,46.3502564 490.892674,45.0446154 495.922429,45.0446154 L495.922429,45.0446154 C500.860734,45.0446154 505.26177,45.9952137 509.125537,47.8964103 C513.012166,49.7976068 515.927137,52.1683761 517.870452,55.0087179 L517.870452,55.0087179 L517.081695,57.2420513 L518.522034,47.4497436 L531.107853,47.4497436 L531.107853,103.248718 C531.107853,108.379658 529.758964,112.995214 527.061186,117.095385 C524.363409,121.195556 520.636817,124.471111 515.881412,126.922051 C511.126008,129.350085 505.478964,130.564103 498.940282,130.564103 Z M480.833164,74.6276923 L480.833164,74.6276923 C480.833164,78.0635897 481.621921,81.2017094 483.199435,84.0420513 C484.799812,86.8594872 486.983183,89.0813675 489.749548,90.7076923 C492.538776,92.3569231 495.648079,93.1815385 499.077458,93.1815385 L499.077458,93.1815385 C502.163898,93.1815385 504.941695,92.6317949 507.410847,91.5323077 C509.88,90.4099145 511.971921,88.8981197 513.68661,86.9969231 C515.424162,85.0957265 516.681601,82.8738462 517.458927,80.3312821 L517.458927,80.3312821 L517.458927,68.7866667 C516.681601,66.2211966 515.412731,64.0336752 513.652316,62.2241026 C511.86904,60.4145299 509.742825,58.982906 507.273672,57.9292308 C504.80452,56.8526496 502.072448,56.314359 499.077458,56.314359 L499.077458,56.314359 C495.648079,56.314359 492.538776,57.0931624 489.749548,58.6507692 C486.983183,60.1854701 484.799812,62.3271795 483.199435,65.0758974 C481.621921,67.8246154 480.833164,71.008547 480.833164,74.6276923 Z M573.11774,104.313846 L573.11774,104.313846 C566.670508,104.313846 561.16064,103.054017 556.588136,100.534359 C551.992768,98.0147009 548.460508,94.5215385 545.991356,90.0548718 C543.522203,85.5882051 542.287627,80.4916239 542.287627,74.7651282 L542.287627,74.7651282 C542.287627,69.2676923 543.682241,64.297094 546.471469,59.8533333 C549.237834,55.3866667 552.987288,51.8247863 557.719831,49.1676923 C562.42951,46.5105983 567.653597,45.1820513 573.39209,45.1820513 L573.39209,45.1820513 C580.799548,45.1820513 586.949567,47.3466667 591.842147,51.6758974 C596.734727,56.0051282 600.015499,62.0637607 601.684463,69.8517949 L601.684463,69.8517949 L556.588136,85.4851282 L553.398814,77.5482051 L589.510169,64.5605128 L586.732373,66.2784615 C585.680697,63.5297436 584.011733,61.1131624 581.72548,59.0287179 C579.439228,56.9671795 576.307062,55.9364103 572.328983,55.9364103 L572.328983,55.9364103 C569.151092,55.9364103 566.304708,56.7037607 563.789831,58.2384615 C561.274953,59.7960684 559.297345,61.9148718 557.857006,64.5948718 C556.393804,67.2977778 555.662203,70.4588034 555.662203,74.0779487 L555.662203,74.0779487 C555.662203,77.7887179 556.428098,81.0413675 557.959887,83.8358974 C559.514539,86.6075214 561.640753,88.7950427 564.338531,90.3984615 C567.013446,91.9789744 570.031299,92.7692308 573.39209,92.7692308 L573.39209,92.7692308 C575.769793,92.7692308 578.033183,92.3340171 580.18226,91.4635897 C582.3542,90.5702564 584.411827,89.4593162 586.355141,88.1307692 L586.355141,88.1307692 L592.562316,98.1979487 C589.658776,100.053333 586.503748,101.542222 583.097232,102.664615 C579.713578,103.764103 576.387081,104.313846 573.11774,104.313846 Z"></path>
                </g>
            </g>
        </g>
    </g>
</svg>